<?xml version="1.0" standalone="no"?>
<!DOCTYPE svg PUBLIC "-//W3C//DTD SVG 1.1//EN" "http://www.w3.org/Graphics/SVG/1.1/DTD/svg11.dtd" >
<svg xmlns="http://www.w3.org/2000/svg">
<metadata>Generated by IcoMoon</metadata>
<defs>
<font id="experiture" horiz-adv-x="1024">
<font-face units-per-em="1024" ascent="960" descent="-64" />
<missing-glyph horiz-adv-x="1024" />
<glyph unicode="&#x20;" horiz-adv-x="512" d="" />
<glyph unicode="&#xe900;" glyph-name="add" d="M746.667-64c-152.917 0-277.333 124.416-277.333 277.333s124.416 277.333 277.333 277.333 277.333-124.416 277.333-277.333-124.416-277.333-277.333-277.333zM746.667 426.667c-117.632 0-213.333-95.701-213.333-213.333s95.701-213.333 213.333-213.333 213.333 95.701 213.333 213.333-95.701 213.333-213.333 213.333zM746.667 64c-17.664 0-32 14.336-32 32v234.667c0 17.664 14.336 32 32 32s32-14.336 32-32v-234.667c0-17.664-14.336-32-32-32zM864 181.333h-234.667c-17.664 0-32 14.336-32 32s14.336 32 32 32h234.667c17.664 0 32-14.336 32-32s-14.336-32-32-32zM392.107 64h-274.773c-64.725 0-117.333 52.608-117.333 117.333v661.333c0 64.725 52.608 117.333 117.333 117.333h490.667c64.725 0 117.333-52.608 117.333-117.333v-259.84c0-17.664-14.336-32-32-32s-32 14.336-32 32v259.84c0 29.397-23.936 53.333-53.333 53.333h-490.667c-29.397 0-53.333-23.936-53.333-53.333v-661.333c0-29.397 23.936-53.333 53.333-53.333h274.773c17.664 0 32-14.336 32-32s-14.336-32-32-32zM565.333 554.667h-405.333c-17.664 0-32 14.336-32 32s14.336 32 32 32h405.333c17.664 0 32-14.336 32-32s-14.336-32-32-32zM394.667 384h-234.667c-17.664 0-32 14.336-32 32s14.336 32 32 32h234.667c17.664 0 32-14.336 32-32s-14.336-32-32-32zM352 725.333h-192c-17.664 0-32 14.336-32 32s14.336 32 32 32h192c17.664 0 32-14.336 32-32s-14.336-32-32-32z" />
<glyph unicode="&#xe901;" glyph-name="analytics" d="M1004 336h-108v449.188c-0.016 0-0.031 0.008-0.047 0.016-0.008 5.195-1.992 10.305-5.813 14.125l-154.82 154.813c-3.82 3.828-8.938 5.813-14.133 5.813 0 0.016-0.008 0.031-0.008 0.047h-541.18c-37.492 0-68-30.5-68-68v-106.734c-66.711-36.805-112-107.836-112-189.266 0-81.422 45.289-152.453 112-189.258v-402.742c0-37.492 30.508-68 68-68h648c37.492 0 68 30.508 68 68v40h108c11.047 0 20 8.961 20 20v252c0 11.047-8.953 20-20 20zM512 84v88h88v-88zM640 192v104h88v-212h-88zM768 416h88v-332h-88zM741.18 891.719l86.539-86.539h-58.406c-15.508 0-28.133 12.625-28.133 28.133zM40 596c0 90.289 68.336 164.898 156 174.859v-174.859c0-5.523 2.234-10.523 5.859-14.141l123.586-123.586c-30.070-23.945-68.117-38.273-109.445-38.273-97.047 0-176 78.953-176 176zM353.727 486.555l-89.438 89.445h126.57c-3.82-33.563-17.102-64.297-37.133-89.445zM236 616v195.086c103.188-9.516 185.57-91.898 195.078-195.086zM828-24h-648c-15.438 0-28 12.563-28 28v385.68c20.234-6.289 41.727-9.68 64-9.68 112.359 0 204.938 86.242 215.063 196h20.938c11.047 0 20 8.961 20 20 0 141.156-114.844 256-256 256-11.047 0-20-8.953-20-20v-20.93c-15.172-1.398-29.891-4.359-44-8.75v89.68c0 15.445 12.563 28 28 28h521.18v-86.688c0-37.57 30.563-68.125 68.133-68.125h86.688v-309.188h-108c-11.047 0-20-8.961-20-20v-100h-108c-11.047 0-20-8.961-20-20v-104h-108c-11.047 0-20-8.953-20-20v-128c0-11.039 8.953-20 20-20h364v-40c0-15.438-12.563-28-28-28zM984 84h-88v212h88zM542 669.187h58c11.047 0 20 8.953 20 20 0 11.039-8.953 20-20 20h-58c-11.047 0-20-8.961-20-20 0-11.047 8.953-20 20-20zM694 669.187h74c11.047 0 20 8.953 20 20 0 11.039-8.953 20-20 20h-74c-11.047 0-20-8.961-20-20 0-11.047 8.953-20 20-20zM542 573.18c5.258 0 10.422 2.141 14.141 5.867 3.719 3.719 5.859 8.875 5.859 14.133 0 5.266-2.141 10.422-5.859 14.141s-8.883 5.859-14.141 5.859-10.422-2.133-14.141-5.859c-3.719-3.719-5.859-8.875-5.859-14.141 0-5.258 2.141-10.414 5.859-14.133 3.719-3.727 8.883-5.867 14.141-5.867zM612 593.187c0-11.047 8.953-20 20-20h136c11.047 0 20 8.953 20 20 0 11.039-8.953 20-20 20h-136c-11.047 0-20-8.961-20-20zM237.586 140h74c11.047 0 20 8.961 20 20 0 11.047-8.953 20-20 20h-74c-11.047 0-20-8.953-20-20 0-11.039 8.953-20 20-20zM385.586 84h-148c-11.047 0-20-8.953-20-20 0-11.039 8.953-20 20-20h148c11.047 0 20 8.961 20 20 0 11.047-8.953 20-20 20z" />
<glyph unicode="&#xe902;" glyph-name="audience" d="M513.52 752.1c-77.38 0-140.32-66.5-140.32-148.26 0-81.74 62.94-148.24 140.32-148.24s140.32 66.5 140.32 148.24c0 81.76-62.94 148.26-140.32 148.26zM513.52 515.6c-44.3 0-80.32 39.58-80.32 88.24s36.020 88.26 80.32 88.26 80.32-39.6 80.32-88.26c0-48.66-36.020-88.24-80.32-88.24zM812.3 732.16h-0.96c-67.12-0.56-121.24-58.58-120.66-129.32 0.58-70.4 55.12-127.3 121.82-127.3h0.96c32.9 0.28 63.62 14.14 86.48 39.040 22.32 24.34 34.46 56.4 34.18 90.28-0.58 70.4-55.12 127.3-121.82 127.3zM855.72 555.16c-11.48-12.52-26.66-19.48-42.76-19.62h-0.46c-33.82 0-61.52 30.3-61.82 67.8-0.32 37.66 27.12 68.54 61.16 68.82h0.46c33.82 0 61.52-30.32 61.82-67.8 0.16-18.64-6.38-36.12-18.4-49.2zM843.4 460.54h-62c-47.7 0-91.14-18.6-123.44-48.92-31.44 18.6-68.060 29.28-107.16 29.28h-74.58c-39.86 0-77.18-11.1-109-30.36-32.44 30.96-76.34 50-124.62 50h-62c-99.58 0-180.6-81.020-180.6-180.6v-76.46h265.080v-59.58h496.86v59.58h262.060v76.46c0 99.58-81.020 180.6-180.6 180.6zM267.78 263.48h-207.78v16.46c0 66.5 54.1 120.6 120.6 120.6h62c29.6 0 56.74-10.72 77.76-28.5-27.14-29.68-45.92-67.12-52.58-108.56zM701.94 203.9h-376.86v25.86c0 11.58 1.32 22.88 3.8 33.72 4.86 21.28 14.24 40.88 27.060 57.7 12.74 16.74 28.9 30.74 47.44 40.96 21.62 11.96 46.46 18.76 72.84 18.76h74.58c25.46 0 49.44-6.32 70.5-17.48 18.52-9.8 34.78-23.36 47.74-39.64 13.88-17.4 23.98-37.9 29.1-60.3 2.48-10.84 3.8-22.14 3.8-33.72v-25.86zM964 263.48h-204.76c-6.78 42.1-26.060 80.080-53.88 110 20.76 16.92 47.24 27.060 76.040 27.060h62c66.5 0 120.6-54.1 120.6-120.6v-16.46zM211.5 732.16h-0.96c-67.12-0.56-121.24-58.58-120.66-129.32 0.58-70.4 55.12-127.3 121.82-127.3h0.96c32.9 0.28 63.62 14.14 86.48 39.040 22.32 24.34 34.46 56.4 34.18 90.28-0.58 70.4-55.12 127.3-121.82 127.3zM254.92 555.16c-11.48-12.52-26.66-19.48-42.76-19.62h-0.46c-33.82 0-61.52 30.3-61.82 67.8-0.32 37.66 27.12 68.54 61.16 68.82h0.46c33.82 0 61.52-30.32 61.82-67.8 0.16-18.64-6.38-36.12-18.4-49.2z" />
<glyph unicode="&#xe903;" glyph-name="bill" d="M949.988 467.998h-148.024v472c0 8.088-4.874 15.382-12.346 18.478-7.476 3.098-16.078 1.382-21.796-4.334l-56.658-56.656-56.654 56.654c-7.81 7.81-20.474 7.81-28.286 0l-56.656-56.656-56.65 56.656c-7.81 7.81-20.474 7.81-28.286 0l-56.656-56.656-56.658 56.656c-7.81 7.81-20.474 7.81-28.284 0l-56.656-56.656-56.652 56.656c-7.81 7.81-20.474 7.81-28.286 0l-56.656-56.656-56.654 56.656c-7.762 7.762-20.316 7.802-28.146 0.11-4.112-4.042-6.106-9.428-5.968-14.778v-899.476c0-57.344 46.652-103.996 103.996-103.996h707.952c0.004 0 0.006 0 0.010 0 0.006 0 0.012 0 0.018 0 57.344 0 103.996 46.652 103.996 103.996v408.004c0 11.046-8.954 19.998-20 19.998zM158.012-24c-35.29 0-63.998 28.71-63.998 63.998v851.69l36.628-36.628c7.81-7.81 20.474-7.81 28.286 0l56.656 56.656 56.656-56.656c7.81-7.81 20.474-7.81 28.286 0l56.656 56.656 56.658-56.656c7.81-7.81 20.474-7.81 28.284 0l56.656 56.656 56.656-56.656c7.81-7.81 20.474-7.81 28.286 0l56.656 56.656 56.656-56.656c7.812-7.81 20.476-7.81 28.284 0l36.658 36.656v-443.716c0-0.182 0.022-0.36 0.028-0.542v-407.46c0-24.124 8.28-46.336 22.114-63.998h-626.106zM929.988 39.998c0-35.288-28.71-63.998-63.998-63.998s-63.998 28.71-63.998 63.998v388.002h127.996v-388.002zM427.99 642.29c-19.85 0-35.998 13.828-35.998 30.822 0 16.996 16.15 30.824 35.998 30.824 19.85 0 35.998-13.828 35.998-30.824 0-11.046 8.954-20 20-20s20 8.954 20 20c0 32.602-23.768 60.11-55.998 68.314v13.548c0 11.046-8.954 20-20 20s-20-8.954-20-20v-13.548c-32.232-8.204-55.998-35.714-55.998-68.314 0-39.050 34.094-70.82 75.998-70.82 19.85 0 35.998-13.828 35.998-30.824s-16.148-30.822-35.998-30.822c-19.85 0-35.998 13.828-35.998 30.822 0 11.046-8.954 20-20 20s-20-8.954-20-20c0-32.602 23.768-60.11 55.998-68.314v-16.32c0-11.046 8.954-20 20-20s20 8.954 20 20v16.32c32.232 8.204 55.998 35.712 55.998 68.314 0 39.050-34.094 70.822-75.998 70.822zM628.922 642.288h-38.98c-11.046 0-20-8.954-20-20s8.954-20 20-20h38.98c11.046 0 20 8.954 20 20s-8.954 20-20 20zM266.040 642.288h-38.98c-11.046 0-20-8.954-20-20s8.954-20 20-20h38.98c11.046 0 20 8.954 20 20s-8.954 20-20 20zM639.040 419.986h-316.846c-11.046 0-20-8.954-20-20s8.954-20 20-20h316.846c11.046 0 20 8.954 20 20-0.002 11.046-8.954 20-20 20zM231.076 414.126c-3.72 3.72-8.88 5.86-14.14 5.86s-10.42-2.14-14.14-5.86c-3.72-3.72-5.86-8.88-5.86-14.14s2.14-10.42 5.86-14.14c3.72-3.72 8.88-5.86 14.14-5.86s10.42 2.14 14.14 5.86c3.72 3.72 5.86 8.88 5.86 14.14s-2.14 10.42-5.86 14.14zM639.040 287.99h-316.846c-11.046 0-20-8.954-20-20s8.954-20 20-20h316.846c11.046 0 20 8.954 20 20-0.002 11.046-8.954 20-20 20zM231.076 282.13c-3.72 3.72-8.88 5.86-14.14 5.86s-10.42-2.14-14.14-5.86c-3.72-3.72-5.86-8.88-5.86-14.14s2.14-10.42 5.86-14.14c3.72-3.72 8.88-5.86 14.14-5.86s10.42 2.14 14.14 5.86c3.72 3.72 5.86 8.88 5.86 14.14s-2.14 10.42-5.86 14.14zM639.040 155.994h-316.846c-11.046 0-20-8.954-20-20s8.954-20 20-20h316.846c11.046 0 20 8.954 20 20s-8.954 20-20 20zM231.076 150.134c-3.72 3.72-8.88 5.86-14.14 5.86s-10.42-2.14-14.14-5.86c-3.72-3.72-5.86-8.88-5.86-14.14s2.14-10.42 5.86-14.14c3.72-3.72 8.88-5.86 14.14-5.86s10.42 2.14 14.14 5.86c3.72 3.72 5.86 8.88 5.86 14.14s-2.14 10.42-5.86 14.14z" />
<glyph unicode="&#xe904;" glyph-name="billing" d="M784 736h-112v48c0 8.837-7.163 16-16 16v0h-89.92l-3.856 21.2 12.96 4.32c19.23 6.553 32.816 24.457 32.816 45.535 0 0 0 0.001 0 0.001v0 2.544c-0.079 22.042-14.91 40.599-35.132 46.318l-0.34 0.082c-18.149 5.113-38.991 8.052-60.52 8.052s-42.371-2.939-62.148-8.438l1.628 0.386c-20.568-5.795-35.407-24.354-35.488-46.391v-2.505c0.014-21.065 13.596-38.955 32.478-45.404l0.338-0.1 12.96-4.32-3.856-21.28h-89.92c-8.837 0-16-7.163-16-16v0-48h-112c-26.51 0-48-21.49-48-48v0-672c0-26.51 21.49-48 48-48v0h544c26.51 0 48 21.49 48 48v0 672c0 26.51-21.49 48-48 48v0zM640 768v-96h-50.656l-17.456 96zM556.8 672h-89.6l17.456 96h54.752zM485.056 847.184l-26.112 8.704c-6.409 2.181-10.938 8.145-10.944 15.167v2.545c0 0.004 0 0.008 0 0.012 0 7.415 5.044 13.652 11.888 15.467l0.112 0.025c15.593 4.408 33.501 6.942 52 6.942s36.407-2.534 53.394-7.274l-1.394 0.332c6.956-1.84 12-8.077 12-15.492 0-0.004 0-0.008 0-0.013v0.001-2.496c-0.006-7.023-4.535-12.987-10.831-15.135l-0.113-0.033-26.112-8.704c-6.407-2.186-10.932-8.153-10.932-15.176 0-1.015 0.095-2.008 0.275-2.971l-0.015 0.099 5.296-29.184h-43.2l5.296 29.136c0.168 0.87 0.264 1.87 0.264 2.892 0 7.001-4.497 12.952-10.759 15.122l-0.112 0.034zM384 768h68.112l-17.456-96h-50.656zM368 640h288c8.837 0 16 7.163 16 16v0 48h64v-608l-19.2 25.6c-2.95 3.904-7.583 6.4-12.8 6.4s-9.85-2.496-12.771-6.36l-0.029-0.040-35.2-46.928-35.2 46.928c-2.95 3.904-7.583 6.4-12.8 6.4s-9.85-2.496-12.771-6.36l-0.029-0.040-35.2-46.928-35.2 46.928c-2.95 3.904-7.583 6.4-12.8 6.4s-9.85-2.496-12.771-6.36l-0.029-0.040-35.2-46.928-35.2 46.928c-3.063 3.703-7.658 6.044-12.8 6.044s-9.737-2.341-12.778-6.016l-0.022-0.028-35.2-46.944-35.12 46.944c-3.066 3.697-7.66 6.035-12.8 6.035s-9.734-2.337-12.778-6.007l-0.022-0.027-19.28-25.6v608h64v-48c0-8.837 7.163-16 16-16v0zM800 16c0-8.837-7.163-16-16-16v0h-544c-8.837 0-16 7.163-16 16v0 672c0 8.837 7.163 16 16 16v0h16v-656c0-0.001 0-0.002 0-0.004 0-7.028 4.531-12.997 10.831-15.147l0.113-0.033c1.509-0.515 3.247-0.813 5.055-0.816h0.001c5.217 0 9.85 2.496 12.771 6.36l0.029 0.040 35.2 46.976 35.376-46.976c2.95-3.904 7.583-6.4 12.8-6.4s9.85 2.496 12.771 6.36l0.029 0.040 35.2 46.928 35.2-46.928c3.063-3.703 7.658-6.044 12.8-6.044s9.737 2.341 12.778 6.016l0.022 0.028 35.2 46.928 35.2-46.928c2.95-3.904 7.583-6.4 12.8-6.4s9.85 2.496 12.771 6.36l0.029 0.040 35.2 46.928 35.2-46.928c3.063-3.703 7.658-6.044 12.8-6.044s9.737 2.341 12.778 6.016l0.022 0.028 35.024 46.928 35.2-46.928c2.95-3.904 7.583-6.4 12.8-6.4 8.837 0 16 7.163 16 16v0 656h16c8.837 0 16-7.163 16-16v0zM528 448h-32c-8.837 0-16 7.163-16 16v0h-32c0-26.51 21.49-48 48-48v0-32h32v32c26.51 0 48 21.49 48 48s-21.49 48-48 48v0h-32c-8.837 0-16 7.163-16 16s7.163 16 16 16v0h32c8.837 0 16-7.163 16-16v0h32c0 26.51-21.49 48-48 48v0 32h-32v-32c-26.51 0-48-21.49-48-48s21.49-48 48-48v0h32c8.837 0 16-7.163 16-16s-7.163-16-16-16v0zM352 336h224v-32h-224zM608 336h64v-32h-64zM352 272h224v-32h-224zM608 272h64v-32h-64zM352 208h224v-32h-224zM608 208h64v-32h-64z" />
<glyph unicode="&#xe905;" glyph-name="browser" d="M1006.933 960h-989.867c-10.24 0-17.067-6.827-17.067-17.067v-187.733c0-10.24 6.827-17.067 17.067-17.067h989.867c10.24 0 17.067 6.827 17.067 17.067v187.733c0 10.24-6.827 17.067-17.067 17.067zM989.867 772.267h-955.733v153.6h955.733v-153.6zM85.333 891.733h102.4v-34.133h-102.4v34.133zM85.333 840.533h102.4v-34.133h-102.4v34.133zM17.067 294.4h563.2c10.24 0 17.067 6.827 17.067 17.067v341.333c0 10.24-6.827 17.067-17.067 17.067h-563.2c-10.24 0-17.067-6.827-17.067-17.067v-341.333c0-10.24 6.827-17.067 17.067-17.067zM442.027 427.52l121.173 61.44v-145.067l-121.173 83.627zM527.36 328.533h-453.973l233.813 150.187 220.16-150.187zM563.2 635.733v-109.227l-153.6-76.8-93.867 64.853c-5.12 3.413-13.653 3.413-18.773 0l-262.827-170.667v291.84h529.067zM145.067 482.133c32.427 0 59.733 27.307 59.733 59.733s-27.307 59.733-59.733 59.733-59.733-27.307-59.733-59.733 27.307-59.733 59.733-59.733zM145.067 567.467c13.653 0 25.6-11.947 25.6-25.6s-11.947-25.6-25.6-25.6-25.6 11.947-25.6 25.6 11.947 25.6 25.6 25.6zM648.533 669.867h256v-34.133h-256v34.133zM648.533 584.533h375.467v-34.133h-375.467v34.133zM648.533 499.2h375.467v-34.133h-375.467v34.133zM648.533 413.867h375.467v-34.133h-375.467v34.133zM648.533 328.533h375.467v-34.133h-375.467v34.133zM392.533 226.133h-375.467c-10.24 0-17.067-6.827-17.067-17.067v-256c0-10.24 6.827-17.067 17.067-17.067h375.467c10.24 0 17.067 6.827 17.067 17.067v256c0 10.24-6.827 17.067-17.067 17.067zM375.467-29.867h-341.333v221.867h341.333v-221.867zM1006.933 226.133h-529.067c-10.24 0-17.067-6.827-17.067-17.067v-256c0-10.24 6.827-17.067 17.067-17.067h529.067c10.24 0 17.067 6.827 17.067 17.067v256c0 10.24-6.827 17.067-17.067 17.067zM819.2 192v-221.867h-136.533v221.867h136.533zM494.933 192h153.6v-221.867h-153.6v221.867zM989.867-29.867h-136.533v221.867h136.533v-221.867zM170.667 106.667h68.267v-34.133h-68.267v34.133zM273.067 106.667h68.267v-34.133h-68.267v34.133zM68.267 106.667h68.267v-34.133h-68.267v34.133z" />
<glyph unicode="&#xe906;" glyph-name="calendar" d="M467.313 244.984c5.672-5.664 13.359-8.852 21.383-8.852 8.016 0 15.703 3.18 21.375 8.852l107.945 107.945c11.813 11.813 11.813 30.953 0 42.766-11.805 11.805-30.953 11.805-42.758 0l-86.563-86.563-39.469 39.469c-11.813 11.805-30.953 11.805-42.766 0-11.805-11.805-11.805-30.953 0-42.766zM512.242 80.312c132.352 0 240.023 107.68 240.023 240.031s-107.672 240.023-240.023 240.023c-132.359 0-240.031-107.672-240.031-240.023s107.68-240.031 240.031-240.031zM512.242 499.898c99.008 0 179.555-80.547 179.555-179.555s-80.547-179.563-179.555-179.563-179.562 80.555-179.562 179.563 80.555 179.555 179.562 179.555zM914.688 895.617h-55.148v34.148c0 16.695-13.539 30.234-30.234 30.234s-30.234-13.539-30.234-30.234v-34.148h-59.414v34.148c0 16.695-13.539 30.234-30.242 30.234-16.695 0-30.234-13.539-30.234-30.234v-34.148h-333.875v34.148c0 16.695-13.539 30.234-30.242 30.234-16.695 0-30.234-13.539-30.234-30.234v-34.148h-59.414v34.148c0 16.695-13.539 30.234-30.242 30.234-16.695 0-30.234-13.539-30.234-30.234v-34.148h-55.156c-53.914 0-97.781-43.867-97.781-97.789v-764.047c0-53.914 43.867-97.781 97.781-97.781h804.906c53.922 0 97.781 43.867 97.781 97.781v764.047c0 53.922-43.867 97.789-97.781 97.789zM951.992 33.781c0-20.57-16.734-37.313-37.305-37.313h-804.906c-20.57 0-37.313 16.742-37.313 37.313v610.422h879.523zM72.469 797.828c0 20.578 16.742 37.313 37.313 37.313h55.156v-34.148c0-16.695 13.539-30.234 30.242-30.234 16.695 0 30.234 13.539 30.234 30.234v34.148h59.414v-34.148c0-16.695 13.539-30.234 30.242-30.234 16.695 0 30.234 13.539 30.234 30.234v34.148h333.875v-34.148c0-16.695 13.539-30.234 30.242-30.234 16.695 0 30.234 13.539 30.234 30.234v34.148h59.414v-34.148c0-16.695 13.539-30.234 30.234-30.234 16.703 0 30.242 13.539 30.242 30.234v34.148h55.141c20.57 0 37.313-16.734 37.313-37.313v-93.148h-879.531z" />
<glyph unicode="&#xe907;" glyph-name="check_list" d="M1002.004 941.738h-757.25c-12.15 0-21.996-9.845-21.996-21.996v-437.285h-200.763c-12.15 0-21.996-9.845-21.996-21.996v-372.822c0-73.542 59.829-133.379 133.374-133.379 1.895 0 757.25 0 757.25 0 73.542 0 133.379 59.834 133.379 133.379v832.103c-0.003 12.15-9.848 21.996-21.999 21.996zM43.992 87.639v350.827h178.767v-350.827c0-49.285-40.097-89.388-89.388-89.388-49.282 0-89.379 40.103-89.379 89.388zM980.008 87.639c0-49.285-40.097-89.388-89.388-89.388h-658.336c21.406 23.667 34.466 55.036 34.466 89.388v810.107h713.258v-810.107zM592.487 687.678h281.918c12.15 0 21.996 9.845 21.996 21.996s-9.845 21.996-21.996 21.996h-281.918c-12.15 0-21.996-9.845-21.996-21.996s9.848-21.996 21.996-21.996zM592.487 446.038h281.918c12.15 0 21.996 9.845 21.996 21.996s-9.845 21.996-21.996 21.996h-281.918c-12.15 0-21.996-9.845-21.996-21.996s9.848-21.996 21.996-21.996zM592.487 204.392h281.918c12.15 0 21.996 9.845 21.996 21.996s-9.845 21.996-21.996 21.996h-281.918c-12.15 0-21.996-9.845-21.996-21.996 0-12.148 9.848-21.996 21.996-21.996zM389.513 662.925c4.159-4.399 9.945-6.892 15.992-6.892 0.059 0 0.12 0 0.185 0 6.118 0.053 11.936 2.645 16.063 7.165l120.821 132.33c8.191 8.971 7.555 22.884-1.414 31.076-8.971 8.185-22.884 7.555-31.076-1.414l-104.852-114.836-32.639 34.563c-8.347 8.834-22.271 9.226-31.099 0.889-8.834-8.341-9.226-22.26-0.889-31.093l48.907-51.787zM510.085 573.047l-104.852-114.83-32.645 34.557c-8.341 8.839-22.266 9.232-31.093 0.889-8.834-8.341-9.226-22.26-0.889-31.093l48.907-51.781c4.159-4.399 9.945-6.892 15.992-6.892 0.059 0 0.12 0 0.185 0 6.118 0.053 11.936 2.645 16.063 7.165l120.821 132.324c8.185 8.971 7.555 22.884-1.414 31.076s-22.884 7.561-31.076-1.414zM510.085 320.908l-104.852-114.83-32.645 34.557c-8.341 8.839-22.266 9.235-31.093 0.889-8.834-8.341-9.226-22.26-0.889-31.093l48.907-51.781c4.159-4.399 9.945-6.892 15.992-6.892 0.059 0 0.12 0 0.185 0 6.118 0.053 11.936 2.645 16.063 7.165l120.821 132.324c8.185 8.971 7.555 22.884-1.414 31.076-8.971 8.191-22.884 7.558-31.076-1.414z" />
<glyph unicode="&#xe908;" glyph-name="chevron" d="M512-64c-136.758 0-265.336 53.258-362.039 149.961s-149.961 225.281-149.961 362.039 53.258 265.336 149.961 362.039c96.703 96.703 225.281 149.961 362.039 149.961s265.336-53.258 362.039-149.961c96.703-96.703 149.961-225.281 149.961-362.039s-53.258-265.336-149.961-362.039c-96.703-96.703-225.281-149.961-362.039-149.961zM512 880c-238.203 0-432-193.797-432-432s193.797-432 432-432 432 193.797 432 432-193.797 432-432 432zM788.57 516l-56.57 56.57-220-220-220 220-56.57-56.57 276.57-276.57z" />
<glyph unicode="&#xe909;" glyph-name="close_circle" d="M874.038 810.040c-96.704 96.704-225.28 149.96-362.038 149.96s-265.334-53.256-362.038-149.962c-96.704-96.704-149.962-225.278-149.962-362.040 0-136.76 53.256-265.336 149.96-362.040 96.704-96.7 225.278-149.958 362.038-149.958s265.336 53.256 362.040 149.96c96.704 96.706 149.962 225.28 149.962 362.040s-53.258 265.334-149.962 362.040zM831.612 128.386c-85.372-85.37-198.88-132.386-319.614-132.386s-234.242 47.016-319.612 132.386c-85.372 85.372-132.386 198.878-132.386 319.612s47.018 234.242 132.388 319.614c85.372 85.372 198.878 132.388 319.612 132.388s234.24-47.016 319.614-132.386c176.23-176.236 176.23-462.992-0.002-639.228zM737.708 264.716l-183.282 183.282 183.282 183.282c11.714 11.716 11.714 30.71-0.002 42.424-11.714 11.716-30.71 11.716-42.426 0l-183.28-183.28-183.282 183.282c-11.714 11.716-30.71 11.716-42.426 0s-11.716-30.71 0-42.426l183.282-183.282-183.282-183.282c-11.716-11.716-11.716-30.71 0-42.426 5.858-5.858 13.536-8.786 21.212-8.786 7.678 0 15.356 2.928 21.214 8.786l183.282 183.282 183.282-183.282c5.858-5.858 13.536-8.786 21.214-8.786s15.356 2.928 21.212 8.786c11.716 11.716 11.716 30.71 0 42.426z" />
<glyph unicode="&#xe90a;" glyph-name="close_delete_remove" d="M361.984 551.488c6.208-6.24 14.368-9.344 22.528-9.344s16.32 3.104 22.528 9.344c12.448 12.448 12.448 32.64 0 45.088l-254.88 255.136c-12.448 12.448-32.608 12.448-45.056 0s-12.448-32.64 0-45.088l254.88-255.136zM557.024 446.464l359.84 360.16c12.448 12.448 12.448 32.64 0 45.088s-32.608 17.952-45.056 5.472l-382.336-377.184c0 0-9.472 0-9.472 0s0-11.040 0-11.040l-377.6-382.656c-12.448-12.448-10.080-32.64 2.336-45.088 6.208-6.24 15.552-9.344 23.712-9.344s16.896 3.104 23.104 9.344l360.128 360.128 359.968-360.16c6.208-6.24 14.464-9.344 22.592-9.344s16.352 3.104 22.56 9.344c12.448 12.448 12.48 32.64 0.032 45.088l-359.808 360.192z" />
<glyph unicode="&#xe90b;" glyph-name="close-cross" d="M685.381 448l302.693 302.668c47.894 47.894 47.894 125.535 0 173.405-47.845 47.87-125.535 47.87-173.381 0l-302.693-302.717-302.693 302.717c-47.845 47.87-125.535 47.87-173.381 0-47.894-47.894-47.894-125.535 0-173.405l302.668-302.668-302.668-302.668c-47.894-47.894-47.894-125.535 0-173.405 23.91-23.959 55.325-35.902 86.69-35.902 31.341 0 62.78 11.943 86.69 35.902l302.693 302.668 302.693-302.693c23.935-23.959 55.325-35.902 86.69-35.902s62.78 11.943 86.69 35.902c47.894 47.894 47.894 125.535 0 173.405l-302.693 302.693z" />
<glyph unicode="&#xe90c;" glyph-name="connection-system" d="M922.995 220.075c57.48-11.629 101.005-62.463 101.005-123.598 0-69.441-56.483-125.923-125.923-125.923s-125.923 56.483-125.923 125.923c0 61.134 43.525 111.969 101.005 123.598v162.471h-336.239v-162.471c57.48-11.629 101.005-62.463 101.005-123.598 0-69.441-56.483-125.923-125.923-125.923s-125.923 56.483-125.923 125.923c0 61.134 43.525 111.969 101.005 123.598v162.471h-336.239v-162.471c57.48-11.629 101.005-62.463 101.005-123.598 0-69.441-56.483-125.923-125.923-125.923s-125.923 56.483-125.923 125.923c0 61.134 43.525 111.969 101.005 123.598v167.455c0 24.587 20.267 44.854 44.854 44.854h341.223v144.197c-84.724 11.961-150.178 85.056-150.178 173.103 0 96.353 78.411 175.097 175.097 175.097s175.097-78.411 175.097-175.097c0-88.047-65.454-161.142-150.178-173.103v-144.197h341.223c24.919 0 44.854-20.267 44.854-44.854v-167.455zM974.494 96.478c0 42.196-34.222 76.086-76.086 76.086s-76.086-34.222-76.086-76.086c0-41.864 34.222-76.086 76.086-76.086s76.086 34.222 76.086 76.086zM637.259 750.017c0 69.108-56.151 125.259-125.259 125.259s-125.259-56.151-125.259-125.259 56.151-125.259 125.259-125.259c69.108 0.332 125.259 56.483 125.259 125.259zM588.418 96.478c0 42.196-34.222 76.086-76.086 76.086s-76.086-34.222-76.086-76.086c0-41.864 34.222-76.086 76.086-76.086s76.086 34.222 76.086 76.086zM202.341 96.478c0 42.196-34.222 76.086-76.086 76.086s-76.086-34.222-76.086-76.086c0-41.864 34.222-76.086 76.086-76.086s76.086 34.222 76.086 76.086z" />
<glyph unicode="&#xe90d;" glyph-name="copy" d="M659.005 780.91h-476.035c-44.668 0-80.947-36.279-80.947-80.947v-683.016c0-44.668 36.279-80.947 80.947-80.947h476.035c44.668 0 80.947 36.279 80.947 80.947v683.016c-0.21 44.668-36.489 80.947-80.947 80.947zM683.121 17.157c0-13.421-10.905-24.326-24.326-24.326h-476.035c-13.421 0-24.326 10.905-24.326 24.326v682.806c0 13.421 10.905 24.326 24.326 24.326h476.035c13.421 0 24.326-10.905 24.326-24.326v-682.806zM841.031 960h-476.035c-44.668 0-80.947-36.279-80.947-80.947 0-15.728 12.582-28.31 28.31-28.31s28.31 12.582 28.31 28.31c0 13.421 10.905 24.326 24.326 24.326h476.035c13.421 0 24.326-10.905 24.326-24.326v-683.016c0-13.421-10.905-24.326-24.326-24.326-15.728 0-28.31-12.582-28.31-28.31s12.582-28.31 28.31-28.31c44.668 0 80.947 36.279 80.947 80.947v683.016c0 44.668-36.279 80.947-80.947 80.947z" />
<glyph unicode="&#xe90e;" glyph-name="folder" d="M1016.353 598.696c-6.799 7.931-15.862 12.464-26.060 12.464h-80.447v106.507c0 19.263-14.73 33.991-33.991 33.991h-421.499l-141.632 108.775c-5.665 4.533-13.596 6.799-20.395 6.799h-258.338c-19.261-0.002-33.991-14.73-33.991-33.993v-770.478c0-19.263 14.73-33.991 33.991-33.991h786.343v1.132h56.652c15.862 0 29.46 11.33 32.859 27.194l113.306 513.274c2.266 9.063 0 20.395-6.797 28.326zM280.997 799.248l141.632-108.773c5.665-4.533 13.596-6.799 20.395-6.799h398.838v-72.516h-644.711c-15.862 0-29.46-11.33-32.859-27.194l-96.31-433.961v649.243h213.014zM849.794 97.886h-724.024l98.576 445.291h724.024l-98.576-445.291z" />
<glyph unicode="&#xe90f;" glyph-name="database" d="M511.895 401.665c-192.271 0-353.395 56.484-397.386 132.637-7.734-13.404-12.249-27.332-12.249-41.786v-124.623c0-96.276 183.452-174.388 409.635-174.388 226.323 0 409.845 78.112 409.845 174.388v124.623c0 14.454-4.585 28.382-12.389 41.786-43.991-76.118-204.975-132.637-397.456-132.637zM511.895 144.23c-192.271 0-353.395 56.554-397.386 132.567-7.734-13.334-12.249-27.262-12.249-41.681v-124.728c0-96.311 183.452-174.388 409.635-174.388 226.323 0 409.845 78.042 409.845 174.388v124.728c0 14.419-4.585 28.347-12.389 41.646-43.991-75.978-204.975-132.532-397.456-132.532zM910.541 783.547c-8.049-70.553-183.102-127.003-398.646-127.003-215.439 0-390.492 56.449-398.506 126.968-7.034-12.809-11.129-26.177-11.129-39.931v-124.623c0-96.311 183.452-174.388 409.635-174.388 226.323 0 409.845 78.042 409.845 174.388v124.623c0 13.754-4.165 27.122-11.199 39.966zM511.895 696.091c220.583 0 399.311 59.039 399.311 131.972 0 72.863-178.728 131.937-399.311 131.937-220.443-0.035-399.241-59.109-399.241-131.972 0-72.898 178.798-131.937 399.241-131.937z" />
<glyph unicode="&#xe910;" glyph-name="delete-button" d="M809.054 837.316h-159.394c-7.951 68.948-66.613 122.684-137.661 122.684-71.045 0-129.699-53.733-137.65-122.684h-159.402c-64.506 0-116.978-52.487-116.978-116.991v-6.003c0-49.293 30.693-91.484 73.93-108.675v-552.657c0-64.506 52.479-116.991 116.98-116.991h446.245c64.503 0 116.978 52.49 116.978 116.991v552.655c43.235 17.193 73.93 59.384 73.93 108.675v6.003c0 64.506-52.477 116.993-116.978 116.993zM511.999 904.518c40.408 0 74.136-28.963 81.599-67.201h-163.183c7.461 38.241 41.191 67.201 81.584 67.201zM796.619 52.991c0-33.915-27.594-61.511-61.498-61.511h-446.245c-33.904 0-61.498 27.598-61.498 61.511v544.341h569.241v-544.341zM870.549 714.323c0-33.915-27.594-61.511-61.498-61.511h-594.105c-33.904 0-61.498 27.596-61.498 61.511v6.003c0 33.915 27.594 61.511 61.498 61.511h594.107c33.904 0 61.498-27.596 61.498-61.511v-6.003zM363.269 62.434c15.321 0 27.74 12.424 27.74 27.738v312.348c0 15.317-12.421 27.742-27.74 27.742s-27.74-12.426-27.74-27.742v-312.348c-0.002-15.319 12.419-27.738 27.74-27.738zM511.999 62.434c15.321 0 27.742 12.424 27.742 27.738v312.348c0 15.317-12.426 27.742-27.742 27.742-15.319 0-27.74-12.426-27.74-27.742v-312.348c0-15.319 12.419-27.738 27.74-27.738zM660.729 62.434c15.319 0 27.738 12.424 27.738 27.738v312.348c0 15.317-12.421 27.742-27.738 27.742-15.323 0-27.742-12.426-27.742-27.742v-312.348c-0.002-15.319 12.424-27.738 27.742-27.738z" />
<glyph unicode="&#xe911;" glyph-name="dots-menu" d="M122.895 950.838c-66.030 0-119.743-53.716-119.743-119.743s53.69-119.739 119.743-119.739 119.743 53.713 119.743 119.739-53.716 119.743-119.743 119.743zM510.441 950.838c-66.027 0-119.743-53.716-119.743-119.743s53.716-119.739 119.743-119.739c66.030 0 119.754 53.713 119.754 119.739s-53.702 119.743-119.754 119.743zM904.257 711.352c66.015 0 119.743 53.713 119.743 119.739s-53.683 119.747-119.743 119.747-119.743-53.716-119.743-119.743 53.724-119.743 119.743-119.743zM119.765 327.658c66.027 0 119.754 53.702 119.754 119.739 0 66.041-53.727 119.754-119.754 119.754s-119.765-53.716-119.765-119.754c0-66.038 53.739-119.739 119.765-119.739zM507.311 327.658c66.015 0 119.743 53.702 119.743 119.739 0 66.041-53.683 119.754-119.743 119.754-66.049 0-119.743-53.713-119.743-119.754 0-66.038 53.716-119.739 119.743-119.739zM901.161 327.658c66.041 0 119.743 53.702 119.743 119.739 0 66.041-53.702 119.754-119.743 119.754s-119.787-53.713-119.787-119.754c0-66.038 53.727-119.739 119.787-119.739zM122.505 184.648c-66.027 0-119.765-53.702-119.765-119.743 0-66.015 53.739-119.739 119.765-119.739s119.739 53.698 119.739 119.739-53.713 119.743-119.739 119.743zM510.074 184.648c-66.030 0-119.765-53.702-119.765-119.743 0-66.015 53.716-119.739 119.765-119.739 66.015 0 119.739 53.698 119.739 119.739s-53.724 119.743-119.739 119.743zM903.879 184.648c-66.015 0-119.743-53.702-119.743-119.743 0-66.015 53.727-119.739 119.743-119.739 66.041 0 119.743 53.698 119.743 119.739s-53.727 119.743-119.743 119.743z" />
<glyph unicode="&#xe912;" glyph-name="download" d="M913.757 489.579l-401.786-396.037-401.786 396.1c-25.188 24.997-66.1 24.997-91.288 0s-25.188-65.462 0-90.395l447.433-441.040c24.226-23.971 66.998-24.099 91.352 0l447.433 441.104c25.188 24.933 25.188 65.462 0 90.395-25.257 24.864-66.169 24.864-91.357-0.128zM466.324 405.64c24.226-23.971 66.998-24.099 91.352 0l447.433 441.040c25.188 24.997 25.188 65.462 0 90.395-25.188 24.997-66.1 24.997-91.288 0l-401.85-396.037-401.792 396.037c-25.188 24.997-66.1 24.997-91.288 0s-25.188-65.462 0-90.395l447.433-441.040z" />
<glyph unicode="&#xe913;" glyph-name="edit" d="M957.672 893.666c-88.146 88.364-231.492 88.364-319.638 0l-586.039-585.821c-4.582-4.582-7.418-10.473-8.291-16.8l-43.418-321.602c-1.309-9.164 1.964-18.327 8.291-24.655 5.455-5.455 13.091-8.727 20.727-8.727 1.309 0 2.618 0 3.927 0.218l193.746 26.182c16.146 2.182 27.491 17.018 25.309 33.164s-17.018 27.491-33.164 25.309l-155.346-20.946 30.327 224.292 236.074-236.074c5.455-5.455 13.091-8.727 20.727-8.727s15.273 3.055 20.727 8.727l586.039 585.821c42.764 42.764 66.328 99.491 66.328 159.928s-23.564 117.164-66.328 159.71zM649.38 821.665l98.4-98.4-534.766-534.766-98.4 98.4 534.766 534.766zM351.124 50.607l-96.219 96.219 534.766 534.766 96.219-96.219-534.766-534.766zM926.909 627.483l-235.419 235.419c29.891 24.655 67.2 38.182 106.473 38.182 44.727 0 86.619-17.455 118.255-48.873s48.873-73.528 48.873-118.255c0-39.491-13.527-76.582-38.182-106.473z" />
<glyph unicode="&#xe914;" glyph-name="education_school_learn" d="M812.594 681.378h-167.418c-9.942 0-18-8.058-18-18v-305.036c0-63.508-51.668-115.174-115.176-115.174s-115.176 51.666-115.176 115.174v305.036c0 9.942-8.058 18-18 18h-167.418c-9.942 0-18-8.058-18-18v-305.036c0-32.006 4.758-63.618 14.138-93.958 2.94-9.498 13.016-14.808 22.516-11.878 9.496 2.938 14.814 13.018 11.878 22.516-8.316 26.892-12.534 54.926-12.534 83.322v172.25h131.418v-172.25c0-83.358 67.816-151.174 151.176-151.174s151.176 67.816 151.176 151.174v172.25h131.418v-172.25c0-155.822-126.772-282.594-282.594-282.594-98.458 0-188.328 50.162-240.398 134.186-5.238 8.45-16.33 11.054-24.784 5.818-8.45-5.238-11.054-16.332-5.818-24.784 28.082-45.314 67.388-83.212 113.672-109.6 47.758-27.228 102.162-41.622 157.328-41.622 175.674 0 318.594 142.92 318.594 318.594v305.036c0.002 9.942-8.056 18-17.998 18zM229.406 566.594v78.786h131.418v-78.786h-131.418zM663.176 566.594v78.786h131.418v-78.786h-131.418zM325.68 850.978c-7.032 7.028-18.426 7.028-25.458 0l-66.112-66.112c-5.146-5.148-6.688-12.89-3.9-19.618 2.786-6.726 9.348-11.112 16.628-11.112h53.096l-21.354-21.354c-7.030-7.032-7.030-18.428 0-25.458 3.516-3.514 8.122-5.272 12.728-5.272s9.212 1.758 12.728 5.272l52.080 52.082c5.146 5.148 6.688 12.89 3.9 19.618-2.786 6.726-9.35 11.112-16.628 11.112h-53.096l35.384 35.382c7.032 7.032 7.032 18.432 0.004 25.46zM759.45 850.978c-7.032 7.028-18.426 7.028-25.458 0l-66.112-66.11c-5.146-5.148-6.688-12.89-3.9-19.618 2.786-6.726 9.348-11.112 16.628-11.112h53.096l-21.354-21.354c-7.030-7.032-7.030-18.428 0-25.458 3.516-3.514 8.122-5.272 12.728-5.272s9.212 1.758 12.728 5.272l52.080 52.082c5.146 5.148 6.688 12.89 3.9 19.618-2.786 6.726-9.35 11.112-16.628 11.112h-53.096l35.384 35.382c7.032 7.030 7.032 18.43 0.004 25.458z" />
<glyph unicode="&#xe915;" glyph-name="ellipsis" d="M640 448c0-70.695-57.305-128-128-128s-128 57.305-128 128 57.305 128 128 128 128-57.305 128-128zM256 448c0-70.695-57.305-128-128-128s-128 57.305-128 128 57.305 128 128 128 128-57.305 128-128zM1024 448c0-70.695-57.305-128-128-128s-128 57.305-128 128 57.305 128 128 128 128-57.305 128-128z" />
<glyph unicode="&#xe916;" glyph-name="envelope" d="M927.999 832.001h-831.999c-52.938 0-96.001-43.063-96.001-96.001v-576c0-52.938 43.063-96.001 96.001-96.001h831.999c52.938 0 96.001 43.063 96.001 96.001v576c0 52.938-43.063 96.001-96.001 96.001zM927.999 768.001c4.348 0 8.484-0.902 12.265-2.477l-428.264-371.18-428.267 371.18c3.781 1.573 7.917 2.477 12.265 2.477zM927.999 128.001h-831.999c-17.656 0-32.001 14.343-32.001 32.001v537.905l427.031-370.094c6.032-5.218 13.501-7.813 20.969-7.813s14.937 2.593 20.969 7.813l427.031 370.094v-537.907c-0.002-17.656-14.345-31.999-32.001-31.999z" />
<glyph unicode="&#xe917;" glyph-name="exchange" d="M477.866 260.104v375.466c0 29.014-22.186 51.2-51.2 51.2h-375.466c-29.014 0-51.2-22.186-51.2-51.2v-375.466c0-29.014 22.186-51.2 51.2-51.2h375.466c29.014 0 51.2 22.186 51.2 51.2zM34.134 260.104v375.466c0 10.24 6.826 17.066 17.066 17.066h375.466c10.24 0 17.066-6.826 17.066-17.066v-375.466c0-10.24-6.826-17.066-17.066-17.066h-375.466c-10.24-0.002-17.066 6.826-17.066 17.066zM85.334 567.304h170.666c10.24 0 17.066 6.826 17.066 17.066s-6.826 17.066-17.066 17.066h-170.666c-10.24 0-17.066-6.826-17.066-17.066s6.826-17.066 17.066-17.066zM324.266 533.17h-187.732c-10.24 0-17.066-6.826-17.066-17.066s6.826-17.066 17.066-17.066h187.734c10.24 0 17.066 6.826 17.066 17.066s-6.828 17.066-17.068 17.066zM256 464.904h-170.666c-10.24 0-17.066-6.826-17.066-17.066s6.826-17.066 17.066-17.066h170.666c10.24 0 17.066 6.826 17.066 17.066s-6.826 17.066-17.066 17.066zM170.666 379.57c0 10.24-6.826 17.066-17.066 17.066h-68.266c-10.24 0-17.066-6.826-17.066-17.066s6.826-17.066 17.066-17.066h68.266c10.24 0 17.066 6.826 17.066 17.066zM256 328.37h-136.534c-10.24 0-17.066-6.826-17.066-17.066s6.826-17.066 17.066-17.066h136.534c10.24 0 17.066 6.826 17.066 17.066s-6.826 17.066-17.066 17.066zM972.8 686.77h-375.466c-29.014 0-51.2-22.186-51.2-51.2v-375.466c0-29.014 22.186-51.2 51.2-51.2h375.466c29.014 0 51.2 22.186 51.2 51.2v375.466c0 29.014-22.186 51.2-51.2 51.2zM989.866 260.104c0-10.24-6.826-17.066-17.066-17.066h-375.466c-10.24 0-17.066 6.826-17.066 17.066v375.466c0 10.24 6.826 17.066 17.066 17.066h375.466c10.24 0 17.066-6.826 17.066-17.066v-375.466zM631.466 567.304h170.666c10.24 0 17.066 6.826 17.066 17.066s-6.826 17.066-17.066 17.066h-170.666c-10.24 0-17.066-6.826-17.066-17.066s6.826-17.066 17.066-17.066zM870.4 533.17h-187.734c-10.24 0-17.066-6.826-17.066-17.066s6.826-17.066 17.066-17.066h187.734c10.24 0 17.066 6.826 17.066 17.066s-6.826 17.066-17.066 17.066zM802.134 464.904h-170.666c-10.24 0-17.066-6.826-17.066-17.066s6.826-17.066 17.066-17.066h170.666c10.24 0 17.066 6.826 17.066 17.066s-6.826 17.066-17.066 17.066zM716.8 379.57c0 10.24-6.826 17.066-17.066 17.066h-68.266c-10.24 0-17.066-6.826-17.066-17.066s6.826-17.066 17.066-17.066h68.266c10.24 0 17.066 6.826 17.066 17.066zM802.134 328.37h-136.534c-10.24 0-17.066-6.826-17.066-17.066s6.826-17.066 17.066-17.066h136.534c10.24 0 17.066 6.826 17.066 17.066s-6.826 17.066-17.066 17.066zM238.934 772.104c1.706 0 5.12 0 6.826 1.706 97.28 47.786 174.080 66.56 266.24 66.56 79.836 0 148.154-14.104 228.236-48.938l-74.636-24.448c-8.534-3.414-13.654-11.946-10.24-20.48 1.706-6.826 8.534-11.946 15.36-11.946 1.706 0 3.414 0 5.12 1.706l110.522 36.29c6.072 0.436 11.704 3.884 14.064 9.79 0.864 1.728 1.286 3.892 1.276 6.052 0.15 3.646-0.784 7.242-2.692 10.208l-36.13 110.032c-3.414 8.534-11.946 13.654-20.48 11.946-8.534-3.414-13.654-13.654-10.24-22.186l25.506-77.862c-85.61 37.936-159.636 53.97-245.666 53.97-97.28 0-179.2-20.48-279.894-69.974-8.534-3.414-11.946-13.654-8.534-22.186 3.414-6.828 8.534-10.24 15.362-10.24zM778.24 121.864c-97.28-47.786-174.080-66.56-266.24-66.56-79.346 0-147.316 13.936-226.762 48.302l76.576 25.086c8.534 3.414 13.654 13.654 10.24 22.186s-13.654 13.654-22.186 10.24l-114.346-37.546c-1.9-0.634-3.562-1.502-4.992-2.518-3.058-1.662-5.572-4.264-6.956-7.722-2.188-5.472-1.558-11.636 1.416-16.26l36.13-110.032c1.706-6.826 8.534-11.946 15.36-11.946 3.414 0 5.12 0 8.534 0 8.534 3.414 13.654 13.654 10.24 22.186l-24.93 76.102c83.93-36.676 156.984-52.208 241.676-52.208 97.28 0 179.2 20.48 279.894 69.974 8.534 3.414 11.946 13.654 8.534 22.186-3.414 8.53-13.654 11.942-22.188 8.53z" />
<glyph unicode="&#xe918;" glyph-name="expand_more" d="M777.12 598.912l-265.12-265.184-265.12 265.216c-12.64 12.64-33.088 12.64-45.728 0-12.608-12.64-12.608-33.12 0-45.76l287.968-288.064c12.608-12.64 33.088-12.64 45.696 0l287.968 288.064c12.608 12.64 12.608 33.152 0 45.792-12.576 12.576-33.056 12.576-45.664-0.064z" />
<glyph unicode="&#xe919;" glyph-name="export-document" d="M596.736 433.569c3.637-3.637 8.333-5.36 12.998-5.36s9.404 1.797 12.998 5.36c7.126 7.126 7.126 18.801 0 25.964l-463.641 463.745h277.429c10.099 0 18.358 8.228 18.358 18.358 0.006 10.099-8.259 18.364-18.358 18.364h-340.109v-340.183c0-10.173 8.228-18.358 18.358-18.358 10.099 0 18.358 8.191 18.358 18.358v277.503l463.61-463.752zM471.075 813.408c-10.099 0-18.358-8.265-18.358-18.358 0-10.136 8.265-18.358 18.358-18.358h419.792v-552.611h-251.391v-251.391h-353.291v630.049c0 10.136-8.228 18.358-18.358 18.358-10.099 0-18.358-8.228-18.358-18.358v-666.74h417.626l260.499 255.76v621.648h-456.52zM870.706 187.354l-194.514-190.951v190.951h194.514z" />
<glyph unicode="&#xe91a;" glyph-name="report" d="M152 480c24.219 0 46.219 9.633 62.414 25.25l88.297-44.148c-0.453-3.641-0.711-7.336-0.711-11.102 0-49.625 40.375-90 90-90s90 40.375 90 90c0 13.875-3.164 27.031-8.797 38.781l120.016 120.016c11.75-5.633 24.906-8.797 38.781-8.797 49.625 0 90 40.375 90 90 0 9.375-1.445 18.414-4.117 26.914l104.266 78.195c14.281-9.539 31.422-15.109 49.852-15.109 49.625 0 90 40.375 90 90s-40.375 90-90 90-90-40.375-90-90c0-9.375 1.445-18.414 4.117-26.914l-104.266-78.195c-14.281 9.539-31.422 15.109-49.852 15.109-49.625 0-90-40.375-90-90 0-13.875 3.164-27.031 8.797-38.781l-120.016-120.016c-11.75 5.633-24.906 8.797-38.781 8.797-24.219 0-46.219-9.633-62.414-25.25l-88.297 44.148c0.453 3.641 0.711 7.336 0.711 11.102 0 49.625-40.375 90-90 90s-90-40.375-90-90 40.375-90 90-90zM872 900c16.539 0 30-13.461 30-30s-13.461-30-30-30-30 13.461-30 30 13.461 30 30 30zM632 720c16.539 0 30-13.461 30-30s-13.461-30-30-30-30 13.461-30 30 13.461 30 30 30zM392 480c16.539 0 30-13.461 30-30s-13.461-30-30-30-30 13.461-30 30 13.461 30 30 30zM152 600c16.539 0 30-13.461 30-30s-13.461-30-30-30-30 13.461-30 30 13.461 30 30 30zM994-4h-32v634c0 16.57-13.43 30-30 30h-120c-16.57 0-30-13.43-30-30v-634h-60v454c0 16.57-13.43 30-30 30h-120c-16.57 0-30-13.43-30-30v-454h-60v214c0 16.57-13.43 30-30 30h-120c-16.57 0-30-13.43-30-30v-214h-60v334c0 16.57-13.43 30-30 30h-120c-16.57 0-30-13.43-30-30v-334h-32c-16.57 0-30-13.43-30-30s13.43-30 30-30h964c16.57 0 30 13.43 30 30s-13.43 30-30 30zM842 600h60v-604h-60zM602 420h60v-424h-60zM362 180h60v-184h-60zM122 300h60v-304h-60z" />
<glyph unicode="&#xe91b;" glyph-name="up-arrow1" d="M940.18 729.878l-219.425 219.425c-14.263 14.263-37.448 14.263-51.711 0l-219.425-219.425c-10.459-10.459-13.604-26.185-7.972-39.862s19.017-22.601 33.791-22.601h109.712v-511.991h-511.991v-219.425h694.845c20.187 0 36.571 16.384 36.571 36.571v694.845h109.712c14.775 0 28.159 8.923 33.791 22.601s2.487 29.403-7.899 39.862z" />
<glyph unicode="&#xe91c;" glyph-name="file" d="M430-24c0-22.094-17.906-40-40-40h-176c-88.227 0-160 71.773-160 160v704c0 88.227 71.773 160 160 160h491.781c88.219 0 160-71.773 160-160v-382c0-22.094-17.914-40-40-40-22.094 0-40 17.906-40 40v382c0 44.109-35.891 80-80 80h-491.781c-44.109 0-80-35.891-80-80v-704c0-44.109 35.891-80 80-80h176c22.094 0 40-17.906 40-40zM665.781 720h-412c-22.094 0-40-17.906-40-40s17.906-40 40-40h412c22.086 0 40 17.906 40 40s-17.914 40-40 40zM705.781 520c0 22.094-17.914 40-40 40h-412c-22.094 0-40-17.906-40-40s17.906-40 40-40h412c22.086 0 40 17.906 40 40zM253.781 400c-22.094 0-40-17.906-40-40s17.906-40 40-40h210.219c22.094 0 40 17.906 40 40s-17.906 40-40 40zM964.727 107.008c-1.406-2.008-6.227-8.828-9.219-12.602-13.398-16.852-44.758-56.297-88.391-91.117-55.945-44.648-113.516-67.289-171.117-67.289s-115.172 22.641-171.117 67.289c-43.633 34.82-74.992 74.273-88.383 91.117-3 3.773-7.82 10.602-9.227 12.602-9.695 13.797-9.695 32.195 0 45.992 1.406 2 6.227 8.828 9.227 12.602 13.391 16.844 44.75 56.289 88.383 91.109 55.945 44.648 113.516 67.289 171.117 67.289s115.172-22.641 171.117-67.289c43.633-34.82 74.992-74.273 88.383-91.117 3-3.773 7.82-10.602 9.227-12.602 9.695-13.797 9.695-32.188 0-45.984zM881.289 130c-63.602 75.664-125.875 114-185.289 114-59.406 0-121.688-38.328-185.289-114 63.602-75.664 125.875-114 185.289-114s121.688 38.328 185.289 114zM698 206c-41.977 0-76-34.023-76-76s34.023-76 76-76 76 34.023 76 76-34.023 76-76 76z" />
<glyph unicode="&#xe91d;" glyph-name="file_delete" d="M213.333 550.4h426.667c9.421 0 17.067 7.646 17.067 17.067s-7.646 17.067-17.067 17.067h-426.667c-9.421 0-17.067-7.646-17.067-17.067s7.646-17.067 17.067-17.067zM213.333 686.933h170.667c9.421 0 17.067 7.646 17.067 17.067s-7.646 17.067-17.067 17.067h-170.667c-9.421 0-17.067-7.646-17.067-17.067s7.646-17.067 17.067-17.067zM213.333 413.867h426.667c9.421 0 17.067 7.646 17.067 17.067s-7.646 17.067-17.067 17.067h-426.667c-9.421 0-17.067-7.646-17.067-17.067s7.646-17.067 17.067-17.067zM503.467 311.467h-290.133c-9.421 0-17.067-7.646-17.067-17.067s7.646-17.067 17.067-17.067h290.133c9.421 0 17.067 7.646 17.067 17.067s-7.646 17.067-17.067 17.067zM452.267 174.933h-238.933c-9.421 0-17.067-7.646-17.067-17.067s7.646-17.067 17.067-17.067h238.933c9.421 0 17.067 7.646 17.067 17.067s-7.646 17.067-17.067 17.067zM827.733 373.538v337.527l-248.934 248.934h-553.199v-1024h750.933c122.334 0 221.867 99.533 221.867 221.867 0 104.687-72.977 192.461-170.667 215.671zM588.8 901.734l180.668-180.668h-180.668v180.668zM658.398-29.867h-598.665v955.733h494.933v-238.933h238.933v-307.951c-5.837 0.495-11.503 0.751-17.067 0.751-122.334 0-221.867-99.533-221.867-221.867 0-6.81 0.427-13.517 1.024-20.19 0.137-1.553 0.29-3.089 0.461-4.642 0.734-6.519 1.673-12.971 2.953-19.302 0.154-0.751 0.358-1.485 0.512-2.236 1.229-5.769 2.714-11.435 4.386-17.033 0.427-1.399 0.819-2.816 1.263-4.198 1.929-6.007 4.079-11.913 6.485-17.698 0.461-1.092 0.973-2.15 1.434-3.226 2.202-5.052 4.591-9.984 7.151-14.831 0.614-1.161 1.195-2.338 1.826-3.499 2.987-5.41 6.195-10.684 9.626-15.821 0.785-1.178 1.604-2.304 2.406-3.465 3.123-4.506 6.4-8.892 9.83-13.141 0.649-0.802 1.263-1.638 1.929-2.441 3.942-4.745 8.107-9.284 12.425-13.67 1.058-1.075 2.133-2.116 3.226-3.174 4.181-4.079 8.465-8.038 12.954-11.776 0.393-0.341 0.768-0.7 1.178-1.024 4.813-3.959 9.847-7.663 15.002-11.23 1.246-0.87 2.509-1.707 3.772-2.543 1.314-0.836 2.577-1.758 3.891-2.594zM776.533-29.867c-103.509 0-187.733 84.224-187.733 187.733s84.224 187.733 187.733 187.733c5.325 0 10.581-0.358 15.804-0.802 4.966-0.478 10.103-1.126 15.514-2.031l7.561-1.263c84.907-17.971 148.855-93.457 148.855-183.637 0-103.509-84.224-187.733-187.733-187.733zM878.933 174.933h-204.8c-9.421 0-17.067-7.646-17.067-17.067s7.646-17.067 17.067-17.067h204.8c9.421 0 17.067 7.646 17.067 17.067s-7.646 17.067-17.067 17.067z" />
<glyph unicode="&#xe91e;" glyph-name="file_plus" d="M899.591 201.716h-59.010v59.955c0 11.034-8.945 19.979-19.979 19.979s-19.979-8.945-19.979-19.979v-59.955h-59.010c-11.034 0-19.979-8.945-19.979-19.979s8.945-19.979 19.979-19.979h59.010v-59.955c0-11.034 8.945-19.979 19.979-19.979s19.979 8.945 19.979 19.979v59.955h59.010c11.034 0 19.979 8.945 19.979 19.979s-8.945 19.979-19.979 19.979zM963.286 324.422c-38.114 38.114-88.786 59.104-142.686 59.104-27.231 0-53.637-5.366-78.018-15.582v353.028c0 14.613-5.69 28.352-16.021 38.681l-184.306 184.328c-4.313 4.313-9.336 7.836-14.782 10.477-0.006 0.004-0.014 0.006-0.020 0.010-0.256 0.124-0.511 0.25-0.769 0.372-0.475 0.232-0.957 0.448-1.452 0.641-6.807 2.935-14.197 4.519-21.675 4.519h-444.032c-31.882 0-57.819-25.937-57.819-57.819v-908.362c0-31.882 25.937-57.819 57.819-57.819h625.241c30.526 0 55.881 23.867 57.723 54.337 0.024 0.402 0.036 0.803 0.036 1.205v4.14c24.908-10.415 51.49-15.636 78.078-15.636 51.674 0 103.347 19.669 142.686 59.008 78.675 78.675 78.675 206.694-0.002 285.369zM674.373 755.338h-132.025c-2.437 0-4.419 1.984-4.419 4.421v132.039zM702.565-7.745c-0.807-9.178-8.533-16.297-17.801-16.297h-625.239c-9.85 0-17.861 8.012-17.861 17.861v908.362c0 9.85 8.012 17.861 17.861 17.861h438.446v-160.283c0-24.47 19.907-44.379 44.377-44.379h160.279v-369.896c-8.701-6.295-16.968-13.318-24.71-21.060-78.677-78.677-78.677-206.694 0-285.371 7.766-7.766 16.017-14.752 24.65-20.984v-25.815zM935.032 67.308c-63.095-63.097-165.765-63.097-228.861 0s-63.097 165.763 0 228.861c30.566 30.566 71.205 47.398 114.429 47.398s83.866-16.832 114.429-47.398c63.099-63.097 63.099-165.763 0.002-228.861zM142.49 641.576h278.534c11.034 0 19.979 8.945 19.979 19.979s-8.945 19.979-19.979 19.979h-278.534c-11.034 0-19.979-8.945-19.979-19.979s8.945-19.979 19.979-19.979zM490.493 322.077h-348.003c-11.034 0-19.979-8.945-19.979-19.979s8.945-19.979 19.979-19.979h348.003c11.034 0 19.979 8.945 19.979 19.979s-8.945 19.979-19.979 19.979zM490.493 202.257h-348.003c-11.034 0-19.979-8.945-19.979-19.979s8.945-19.979 19.979-19.979h348.003c11.034 0 19.979 8.945 19.979 19.979s-8.945 19.979-19.979 19.979zM602.832 441.894h-460.342c-11.034 0-19.979-8.945-19.979-19.979s8.945-19.979 19.979-19.979h460.342c11.034 0 19.979 8.945 19.979 19.979s-8.947 19.979-19.979 19.979zM140.492 520.464h360.448c11.034 0 19.979 8.945 19.979 19.979s-8.945 19.979-19.979 19.979h-360.448c-11.034 0-19.979-8.945-19.979-19.979s8.945-19.979 19.979-19.979zM620.356 540.443c0-11.040-8.949-19.989-19.989-19.989s-19.989 8.949-19.989 19.989c0 11.040 8.949 19.989 19.989 19.989s19.989-8.949 19.989-19.989z" />
<glyph unicode="&#xe91f;" glyph-name="file_remove" d="M213.333 550.4h426.667c9.421 0 17.067 7.646 17.067 17.067s-7.646 17.067-17.067 17.067h-426.667c-9.421 0-17.067-7.646-17.067-17.067s7.646-17.067 17.067-17.067zM213.333 686.933h170.667c9.421 0 17.067 7.646 17.067 17.067s-7.646 17.067-17.067 17.067h-170.667c-9.421 0-17.067-7.646-17.067-17.067s7.646-17.067 17.067-17.067zM213.333 413.867h426.667c9.421 0 17.067 7.646 17.067 17.067s-7.646 17.067-17.067 17.067h-426.667c-9.421 0-17.067-7.646-17.067-17.067s7.646-17.067 17.067-17.067zM503.467 311.467h-290.133c-9.421 0-17.067-7.646-17.067-17.067s7.646-17.067 17.067-17.067h290.133c9.421 0 17.067 7.646 17.067 17.067s-7.646 17.067-17.067 17.067zM452.267 174.933h-238.933c-9.421 0-17.067-7.646-17.067-17.067s7.646-17.067 17.067-17.067h238.933c9.421 0 17.067 7.646 17.067 17.067s-7.646 17.067-17.067 17.067zM827.733 373.538v337.527l-248.934 248.934h-553.199v-1024h750.933c122.334 0 221.867 99.533 221.867 221.867 0 104.687-72.977 192.461-170.667 215.671zM588.8 901.734l180.668-180.668h-180.668v180.668zM658.398-29.867h-598.665v955.733h494.933v-238.933h238.933v-307.951c-5.837 0.495-11.503 0.751-17.067 0.751-122.334 0-221.867-99.533-221.867-221.867 0-6.81 0.427-13.517 1.024-20.19 0.137-1.553 0.29-3.089 0.461-4.642 0.734-6.519 1.673-12.971 2.953-19.302 0.154-0.751 0.358-1.485 0.512-2.236 1.229-5.769 2.714-11.435 4.386-17.033 0.427-1.399 0.819-2.816 1.263-4.198 1.929-6.007 4.079-11.913 6.485-17.698 0.461-1.092 0.973-2.15 1.434-3.226 2.202-5.052 4.591-9.984 7.151-14.831 0.614-1.161 1.195-2.338 1.826-3.499 2.987-5.41 6.195-10.684 9.626-15.821 0.785-1.178 1.604-2.304 2.406-3.465 3.123-4.506 6.4-8.892 9.83-13.141 0.649-0.802 1.263-1.638 1.929-2.441 3.942-4.745 8.107-9.284 12.425-13.67 1.058-1.075 2.133-2.116 3.226-3.174 4.181-4.079 8.465-8.038 12.954-11.776 0.393-0.341 0.768-0.7 1.178-1.024 4.813-3.959 9.847-7.663 15.002-11.23 1.246-0.87 2.509-1.707 3.772-2.543 1.314-0.836 2.577-1.758 3.891-2.594zM776.533-29.867c-103.509 0-187.733 84.224-187.733 187.733s84.224 187.733 187.733 187.733c5.325 0 10.581-0.358 15.804-0.802 4.966-0.478 10.103-1.126 15.514-2.031l7.561-1.263c84.907-17.971 148.855-93.457 148.855-183.637 0-103.509-84.224-187.733-187.733-187.733zM878.933 174.933h-204.8c-9.421 0-17.067-7.646-17.067-17.067s7.646-17.067 17.067-17.067h204.8c9.421 0 17.067 7.646 17.067 17.067s-7.646 17.067-17.067 17.067z" />
<glyph unicode="&#xe920;" glyph-name="floppy_disk" d="M988.895 960h-953.788c-19.379 0-35.108-15.728-35.108-35.108v-953.785c0-19.374 15.728-35.108 35.108-35.108h953.788c19.371 0 35.105 15.737 35.105 35.108v953.785c0 19.379-15.737 35.108-35.105 35.108zM196.025 907.32h631.95v-295.489h-631.95v295.489zM858.712 10.603h-693.389v437.395h693.389v-437.395zM649.52 863.436h87.788v-210.668h-87.788v210.668zM795.060 339.744h-566.12v35.108h566.12v-35.108zM795.060 216.866h-566.12v35.108h566.12v-35.108zM795.060 98.373h-566.12v35.108h566.12v-35.108z" />
<glyph unicode="&#xe921;" d="M877.088 588.334v140.334c0 38.752-31.415 70.167-70.167 70.167v0h-321.76c-0.003 0-0.007 0-0.011 0-19.384 0-36.932 7.86-49.631 20.567l-64.116 64.116c-12.699 12.707-30.248 20.568-49.632 20.568-0.004 0-0.008 0-0.012 0h-251.592c-38.752 0-70.167-31.415-70.167-70.167v0-736.754h877.088z" />
<glyph unicode="&#xe922;" d="M736.754 693.585h-596.42c-19.376 0-35.084-15.707-35.084-35.084v0-267.007l53.634 150.026c9.913 27.505 35.785 46.815 66.167 46.815 0.003 0 0.007 0 0.010 0h546.776v70.167c0 19.376-15.707 35.084-35.084 35.084v0z" />
<glyph unicode="&#xe923;" d="M953.329 588.334h-728.268c-0.003 0-0.006 0-0.009 0-30.382 0-56.254-19.31-66.013-46.326l-0.154-0.489-158.884-444.355v-35.084c0-38.752 31.415-70.167 70.167-70.167v0h722.194c0.003 0 0.006 0 0.009 0 30.382 0 56.254 19.31 66.013 46.326l0.154 0.489 160.946 456.086c2.534 6.954 4 14.982 4 23.352 0 38.748-31.408 70.16-70.154 70.167h-0.001z" />
<glyph unicode="&#xe924;" d="M953.329 588.334h-72.513c-0.504-1.93-0.965-3.881-1.666-5.811l-160.946-456.086c-9.913-27.505-35.785-46.815-66.167-46.815-0.003 0-0.007 0-0.010 0h-652.027v-17.542c0-38.752 31.415-70.167 70.167-70.167v0h722.194c0.003 0 0.006 0 0.009 0 30.382 0 56.254 19.31 66.013 46.326l0.154 0.489 160.946 456.086c2.534 6.954 4 14.982 4 23.352 0 38.748-31.408 70.16-70.154 70.167h-0.001z" />
<glyph unicode="&#xe925;" glyph-name="folder_image" d="M897.662 785.455h-333.853c-3.602 0-6.926 1.385-9.42 3.879l-81.455 81.732c-6.926 6.926-13.576 10.251-24.104 10.251h-328.312c-71.758 0-120.519-47.931-120.519-113.039v-626.978c0-65.108 48.485-126.615 120.519-126.615h776.866c68.433 0 126.615 54.857 126.615 126.615v524.19c0.277 68.433-54.58 119.965-126.338 119.965zM68.433 764.952h0.277c0 41.004 34.909 44.329 51.81 44.329h305.593c5.541 0 11.082-2.216 14.961-6.372 14.407-14.684 50.978-51.255 72.035-71.758 9.42-9.143 21.887-14.407 35.186-14.407h349.091c26.874 0 58.459-13.576 58.182-47.654-12.19 11.359-37.403 20.225-58.182 20.225h-776.866c-19.671 0-35.186-3.325-52.087-10.805v86.442zM955.567 569.628v-322.771l-195.325 195.325c-13.576 13.576-34.355 13.576-47.931 0l-104.45-104.45-169.281 169.558c-13.576 13.576-34.355 13.576-47.931 0-0.554-0.554-1.108-1.108-1.662-1.662s-1.108-1.108-1.939-1.662l-66.771-66.771-39.342 39.342c-13.576 13.576-34.355 13.576-47.931 0l-164.294-164.571v257.662c0 12.745 4.433 25.212 13.299 34.078 10.528 10.528 21.333 17.177 38.511 17.177h776.866c30.753 0 58.182-17.177 58.182-51.255zM955.567 140.468c0 0.277-0.277-3.602 0-3.325v-0.277c-0.554-10.805-4.433-19.394-10.805-28.26-1.108-1.385-1.939-2.771-2.771-3.879-1.385-1.939-2.771-3.602-4.433-5.264-10.805-10.251-24.658-16.346-39.896-16.346h-777.143c-27.429 0-52.087 27.429-52.087 58.182v74.805l188.398 188.398 72.035-72.035c6.926-6.926 13.576-10.251 24.104-10.251 10.251 0 17.177 3.325 23.827 10.251 13.299 13.299 13.299 34.909 0 48.208l-8.589 8.589 46.268 46.268 201.974-201.974c6.926-6.926 13.576-10.251 24.104-10.251 6.926 0 17.177 3.325 24.104 10.251 13.576 13.576 13.576 34.355 0 47.931l-8.589 8.589 80.623 80.623 219.152-219.152c0 0 0-8.312-0.277-11.082zM572.121 515.879c-18.009 0-32.693-14.684-32.693-32.693s14.684-32.693 32.693-32.693 32.693 14.684 32.693 32.693-14.684 32.693-32.693 32.693z" />
<glyph unicode="&#xe926;" glyph-name="fork" d="M1011.012 673.781l-164.301 164.301c-12.717 12.717-31.905 16.496-48.514 9.639-16.609-6.879-27.538-23.080-27.538-41.024v-82.184c-110.288-21.429-204.759-91.19-258.817-186.408-54.035 95.218-147.398 164.98-258.772 186.408v82.184c0 17.944-10.793 34.145-27.402 41.024-16.541 6.879-35.616 3.077-48.333-9.662l-164.323-164.301c-17.356-17.356-17.356-45.459 0-62.792l164.323-164.346c12.717-12.694 31.769-16.496 48.356-9.617 16.609 6.879 27.402 23.080 27.402 41.024v61.887c76.437-29.213 129.929-102.957 129.929-189.101v-240.285c0-36.272 29.371-65.621 65.598-65.621h126.422c36.272 0 65.621 29.371 65.621 65.621v240.262c0 86.167 54.601 159.911 129.929 189.101v-61.887c0-17.967 10.884-34.145 27.538-41.024 16.564-6.879 35.707-3.077 48.424 9.617l164.391 164.346c17.423 17.356 17.423 45.459 0.068 62.837z" />
<glyph unicode="&#xe927;" glyph-name="gear" d="M512 692.781c-134.969 0-244.781-109.813-244.781-244.781s109.813-244.781 244.781-244.781 244.781 109.813 244.781 244.781-109.813 244.781-244.781 244.781zM512 264.414c-101.227 0-183.586 82.359-183.586 183.586s82.359 183.586 183.586 183.586 183.586-82.359 183.586-183.586-82.359-183.586-183.586-183.586zM999.906 564.594l-78.703 17.109c-6.844 20.953-15.32 41.391-25.328 61.078l43.57 67.773c7.781 12.109 6.070 28.008-4.102 38.18l-122.609 122.609c-10.172 10.172-26.070 11.883-38.18 4.102l-67.773-43.57c-19.688 10.008-40.125 18.484-61.078 25.328l-17.109 78.703c-3.055 14.063-15.508 24.094-29.898 24.094h-173.391c-14.391 0-26.844-10.031-29.898-24.094l-17.109-78.703c-20.953-6.844-41.391-15.32-61.078-25.328l-67.773 43.57c-12.109 7.781-28.008 6.070-38.18-4.102l-122.609-122.609c-10.172-10.172-11.883-26.070-4.102-38.18l43.57-67.773c-10.008-19.688-18.484-40.125-25.328-61.078l-78.703-17.109c-14.063-3.063-24.094-15.508-24.094-29.898v-173.391c0-14.391 10.031-26.836 24.094-29.898l78.703-17.109c6.844-20.953 15.32-41.391 25.328-61.078l-43.57-67.773c-7.781-12.109-6.070-28.008 4.102-38.18l122.609-122.609c10.172-10.172 26.070-11.883 38.18-4.102l67.773 43.57c19.688-10.008 40.125-18.484 61.078-25.328l17.109-78.703c3.055-14.063 15.508-24.094 29.898-24.094h173.391c14.391 0 26.844 10.031 29.898 24.094l17.109 78.703c20.953 6.844 41.391 15.32 61.078 25.328l67.773-43.57c12.109-7.781 28.008-6.078 38.18 4.102l122.609 122.609c10.172 10.172 11.883 26.070 4.102 38.18l-43.57 67.773c10.008 19.688 18.484 40.125 25.328 61.078l78.703 17.109c14.063 3.063 24.094 15.508 24.094 29.898v173.391c0 14.391-10.031 26.836-24.094 29.898zM962.805 385.969l-72.164-15.688c-11.086-2.414-19.93-10.758-22.977-21.68-7.93-28.445-19.336-55.953-33.898-81.758-5.578-9.883-5.234-22.039 0.906-31.586l39.961-62.156-87.727-87.734-62.164 39.961c-9.547 6.141-21.703 6.484-31.578 0.906-25.813-14.563-53.32-25.969-81.766-33.898-10.922-3.047-19.266-11.891-21.68-22.977l-15.688-72.164h-124.063l-15.688 72.164c-2.414 11.086-10.758 19.93-21.68 22.977-28.445 7.93-55.953 19.336-81.758 33.898-9.883 5.578-22.039 5.227-31.586-0.906l-62.156-39.961-87.727 87.734 39.953 62.156c6.141 9.547 6.492 21.703 0.914 31.586-14.563 25.805-25.969 53.313-33.906 81.758-3.047 10.922-11.883 19.266-22.969 21.68l-72.172 15.688v124.063l72.164 15.688c11.086 2.414 19.93 10.758 22.977 21.68 7.93 28.445 19.336 55.953 33.898 81.758 5.578 9.883 5.234 22.039-0.906 31.586l-39.961 62.156 87.727 87.734 62.164-39.961c9.547-6.141 21.703-6.484 31.578-0.906 25.813 14.563 53.32 25.969 81.766 33.898 10.922 3.047 19.266 11.891 21.68 22.977l15.688 72.164h124.063l15.688-72.164c2.414-11.086 10.758-19.93 21.68-22.977 28.445-7.93 55.953-19.336 81.758-33.898 9.883-5.578 22.039-5.227 31.586 0.906l62.156 39.961 87.727-87.734-39.953-62.156c-6.141-9.547-6.492-21.703-0.914-31.586 14.57-25.805 25.969-53.313 33.906-81.758 3.047-10.922 11.883-19.266 22.969-21.68l72.172-15.688z" />
<glyph unicode="&#xe928;" glyph-name="html" d="M360.432 209.344l-360.432 187.568v82.064l360.432 188.336v-106.176l-252.064-124.448 252.064-121.088v-106.256zM633.808 768l-152.944-672h-89.248l152.944 672h89.248zM915.664 436.688l-252.096 124.432v106.176l360.432-188.32v-82.064l-360.432-187.568v106.256l252.096 121.088z" />
<glyph unicode="&#xe929;" glyph-name="share" d="M820.664 640c-88.188 0-160 71.766-160 160s71.813 160 160 160c88.195 0 160-71.766 160-160s-71.805-160-160-160zM820.664 896c-52.906 0-96-43.047-96-96s43.094-96 96-96 96 43.047 96 96-43.094 96-96 96zM820.664-64c-88.188 0-160 71.766-160 160s71.813 160 160 160c88.195 0 160-71.766 160-160s-71.805-160-160-160zM820.664 192c-52.906 0-96-43.047-96-96s43.094-96 96-96 96 43.047 96 96-43.094 96-96 96zM202 288c-88.195 0-160 71.766-160 160s71.805 160 160 160 160-71.766 160-160-71.805-160-160-160zM202 544c-52.906 0-96-43.047-96-96s43.094-96 96-96 96 43.047 96 96-43.094 96-96 96zM313.406 479.148c-11.141 0-21.977 5.805-27.82 16.125-8.75 15.359-3.414 34.906 11.945 43.648l395.906 225.711c15.313 8.828 34.898 3.453 43.602-11.953 8.75-15.359 3.414-34.898-11.945-43.648l-395.906-225.703c-4.992-2.813-10.406-4.18-15.781-4.18zM709.266 127.148c-5.375 0-10.797 1.367-15.789 4.219l-395.906 225.711c-15.359 8.742-20.688 28.289-11.945 43.648 8.703 15.398 28.25 20.734 43.609 11.945l395.898-225.703c15.359-8.75 20.695-28.289 11.953-43.648-5.891-10.367-16.727-16.172-27.82-16.172z" />
<glyph unicode="&#xe92a;" glyph-name="info" d="M724.675 46.507l-14.308-58.488c-42.923-16.942-77.21-29.836-102.742-38.702-25.559-8.893-55.258-13.317-89.095-13.317-51.963 0-92.381 12.729-121.207 38.013-28.827 25.385-43.244 57.552-43.244 96.575 0 15.106 1.046 30.644 3.221 46.475 2.193 15.85 5.681 33.7 10.453 53.652l53.643 189.865c4.772 18.181 8.829 35.407 12.078 51.697 3.295 16.189 4.882 31.084 4.882 44.493 0 24.247-5.020 41.207-15.014 50.743-9.994 9.508-29.065 14.335-57.378 14.335-13.867 0-28.12-2.221-42.648-6.516-14.592-4.313-27.065-8.48-37.536-12.353l14.344 58.534c35.141 14.308 68.73 26.56 100.861 36.728 32.13 10.196 62.49 15.299 91.206 15.299 51.605 0 91.426-12.472 119.39-37.417 27.964-24.963 41.941-57.323 41.941-97.199 0-8.251-0.918-22.788-2.891-43.566-1.927-20.824-5.516-39.904-10.747-57.259l-53.413-189.103c-4.378-15.189-8.315-32.553-11.738-52.092-3.533-19.41-5.222-34.241-5.222-44.19 0-25.11 5.598-42.253 16.822-51.367 11.307-9.113 30.781-13.647 58.442-13.647 12.986 0 27.762 2.304 44.181 6.828 16.373 4.525 28.313 8.498 35.719 11.977zM738.221 840.417c0-32.947-12.417-61.086-37.371-84.222-24.889-23.219-54.882-34.838-89.967-34.838-35.196 0-65.261 11.619-90.435 34.838-25.128 23.146-37.72 51.275-37.72 84.222 0 32.883 12.592 61.067 37.72 84.497 25.128 23.393 55.249 35.086 90.435 35.086 35.076 0 65.078-11.72 89.967-35.086 24.972-23.43 37.371-51.624 37.371-84.497z" />
<glyph unicode="&#xe92b;" glyph-name="info_filled" d="M511.978 960c-282.732 0-511.978-229.246-511.978-511.978s229.246-512.022 511.978-512.022 512.022 229.289 512.022 512.022-229.289 511.978-512.022 511.978zM618.561 166.503c-26.353-10.403-47.332-18.291-63.065-23.752-15.69-5.461-33.938-8.192-54.7-8.192-31.901 0-56.737 7.802-74.422 23.362s-26.483 35.282-26.483 59.251c0 9.319 0.65 18.855 1.95 28.564 1.344 9.709 3.468 20.632 6.372 32.898l32.985 116.508c2.904 11.183 5.418 21.802 7.412 31.684 1.994 9.969 2.947 19.115 2.947 27.437 0 14.824-3.077 25.226-9.189 31.078-6.198 5.851-17.858 8.712-35.239 8.712-8.495 0-17.251-1.257-26.223-3.901-8.886-2.731-16.601-5.201-22.929-7.629l8.712 35.889c21.585 8.799 42.26 16.341 61.982 22.582 19.721 6.328 38.359 9.449 55.914 9.449 31.684 0 56.13-7.715 73.338-22.972 17.121-15.3 25.746-35.195 25.746-59.641 0-5.071-0.607-14-1.777-26.743-1.17-12.786-3.381-24.446-6.588-35.152l-32.811-116.162c-2.687-9.319-5.071-19.982-7.238-31.901-2.124-11.92-3.164-21.022-3.164-27.133 0-15.43 3.424-25.963 10.359-31.554 6.848-5.591 18.855-8.409 35.845-8.409 8.019 0 16.991 1.43 27.133 4.204 10.056 2.774 17.338 5.245 21.932 7.368l-8.799-35.845zM612.753 637.998c-15.3-14.217-33.722-21.325-55.263-21.325-21.499 0-40.050 7.108-55.48 21.325-15.344 14.217-23.102 31.511-23.102 51.709 0 20.155 7.802 37.492 23.102 51.839 15.43 14.39 33.982 21.542 55.48 21.542 21.542 0 40.006-7.152 55.263-21.542 15.3-14.347 22.972-31.684 22.972-51.839 0-20.242-7.672-37.492-22.972-51.709z" />
<glyph unicode="&#xe92c;" glyph-name="insight" d="M899.082 755.078c-68.884 0-124.922-56.041-124.922-124.922 0-33.196 13.040-63.385 34.234-85.779l-104.735-157.849c-10.299 2.755-21.108 4.248-32.265 4.248-32.406 0-61.968-12.409-84.189-32.717l-78.121 78.121c8.926 17.191 14.005 36.692 14.005 57.365 0 68.884-56.041 124.922-124.925 124.922s-124.922-56.041-124.922-124.922c0-19.046 4.299-37.099 11.954-53.266l-88.896-71.98c-20.249 14.15-44.846 22.48-71.367 22.48-68.891-0.007-124.932-56.048-124.932-124.936 0-68.884 56.041-124.922 124.925-124.922s124.922 56.041 124.922 124.922c0 17.839-3.786 34.799-10.55 50.166l90.333 73.149c19.691-12.971 43.232-20.546 68.522-20.546 23.656 0 45.794 6.609 64.671 18.077l88.037-88.037c-2.851-10.461-4.399-21.452-4.399-32.806 0-68.884 56.041-124.922 124.925-124.922s124.922 56.041 124.922 124.922c0 33.299-13.122 63.575-34.434 85.989l104.649 157.721c10.385-2.807 21.29-4.327 32.551-4.327 68.884 0 124.925 56.041 124.925 124.925 0.007 68.881-56.034 124.922-124.918 124.922zM124.925 208.617c-31.558 0-57.231 25.673-57.231 57.227 0 31.558 25.673 57.231 57.231 57.231 31.555 0 57.227-25.673 57.227-57.231 0.003-31.551-25.673-57.227-57.227-57.227zM398.156 436.308c-31.555 0-57.227 25.673-57.227 57.231 0 31.555 25.673 57.227 57.227 57.227 31.558 0 57.231-25.673 57.231-57.227 0-31.558-25.673-57.231-57.231-57.231zM671.39 208.617c-31.558 0-57.231 25.673-57.231 57.227 0 31.558 25.673 57.231 57.231 57.231 31.555 0 57.227-25.673 57.227-57.231 0-31.551-25.673-57.227-57.227-57.227zM899.082 572.922c-31.555 0-57.227 25.673-57.227 57.231 0 31.555 25.673 57.227 57.227 57.227 31.558 0 57.231-25.673 57.231-57.227s-25.676-57.231-57.231-57.231z" />
<glyph unicode="&#xe92d;" glyph-name="invoice" d="M299.816 561.757h151.698c13.091 0 23.703 10.612 23.703 23.703s-10.612 23.703-23.703 23.703h-151.698c-13.091 0-23.703-10.612-23.703-23.703s10.614-23.703 23.703-23.703zM593.733 455.092h-293.918c-13.091 0-23.703-10.612-23.703-23.703s10.612-23.703 23.703-23.703h293.915c13.091 0 23.703 10.612 23.703 23.703s-10.612 23.703-23.701 23.703zM593.733 301.024h-293.918c-13.091 0-23.703-10.612-23.703-23.703s10.612-23.703 23.703-23.703h293.915c13.091 0 23.703 10.612 23.703 23.703s-10.612 23.703-23.701 23.703zM932.684 123.253v746.642c1.983 47.739-35.111 88.047-82.85 90.030-2.010 0.084-4.024 0.098-6.034 0.041h-509.615c-52.147 0-100.737-37.924-100.737-90.071v-40.294h-41.478c-54.225-1.191-98.258-44.187-100.737-98.366v-747.826c1.543-14.45 10.535-27.038 23.703-33.185 13.631-6.020 29.549-3.212 40.294 7.112l72.293 65.184 86.516-77.034c6.454-5.986 14.901-9.364 23.703-9.482 8.758 0.327 17.136 3.677 23.703 9.482l85.33 77.034 85.33-77.034c13.497-12.073 33.909-12.073 47.406 0l86.516 77.034 71.109-65.184c8.609-10.596 23.533-13.581 35.553-7.112 11.775 6.76 18.674 19.636 17.778 33.185v168.291l14.221 10.666 72.293-65.184c6.685-6.377 15.655-9.795 24.887-9.482 4.097-0.37 8.212 0.454 11.85 2.371 12.461 6.202 19.946 19.302 18.966 33.183zM743.060 9.479l-55.702 54.517c-12.551 12.83-33.029 13.354-46.222 1.184l-86.516-77.034-84.146 77.034c-13.856 11.093-33.55 11.093-47.406 0l-85.33-77.034-86.516 77.034c-14.947 12.25-36.599 11.746-50.961-1.184l-61.627-54.517v721.753c2.371 28.011 25.241 49.865 53.331 50.961h509.612c26.073 0 41.481-24.887 41.481-50.961v-721.753zM885.278 869.895v-720.569l-59.256 54.517c-9.482 9.482-11.85 11.85-35.553 8.296v519.092c0 52.147-36.74 98.366-88.887 98.366h-420.728v40.297c0 26.073 27.258 42.665 53.331 42.665h509.612c21.555 1.402 40.165-14.933 41.567-36.488 0.136-2.057 0.107-4.124-0.086-6.177z" />
<glyph unicode="&#xe92e;" glyph-name="layout" d="M944 928h-864c-26.51 0-48-21.49-48-48v0-864c0-26.51 21.49-48 48-48v0h864c26.51 0 48 21.49 48 48v0 864c0 26.51-21.49 48-48 48v0zM960 16c0-8.837-7.163-16-16-16v0h-864c-8.837 0-16 7.163-16 16v0 752h896zM64 800v80c0 8.837 7.163 16 16 16v0h864c8.837 0 16-7.163 16-16v0-80zM100.64 859.36c-2.843-2.94-4.606-6.941-4.64-11.353v-0.007c0.027-2.202 0.496-4.288 1.32-6.183l-0.040 0.103c0.777-2.059 1.92-3.818 3.362-5.282l-0.002 0.002c2.907-2.907 6.924-4.705 11.36-4.705 8.873 0 16.065 7.193 16.065 16.065 0 4.436-1.798 8.453-4.705 11.36v0c-2.976 2.752-6.971 4.44-11.36 4.44s-8.384-1.688-11.371-4.45l0.011 0.010zM164.64 859.36c-2.818-2.956-4.573-6.947-4.64-11.347v-0.013c0.030-1.153 0.145-2.256 0.34-3.332l-0.020 0.132c0.191-1.081 0.525-2.047 0.987-2.937l-0.027 0.057c0.382-1.099 0.869-2.051 1.467-2.921l-0.027 0.041c0.635-0.896 1.265-1.679 1.939-2.421l-0.019 0.021c2.924-2.87 6.935-4.641 11.36-4.641s8.436 1.771 11.363 4.643l-0.003-0.002 1.92 2.4c0.571 0.829 1.058 1.781 1.414 2.795l0.026 0.085c0.435 0.833 0.769 1.799 0.951 2.818l0.009 0.062c0.175 0.944 0.29 2.047 0.319 3.172l0.001 0.028c0 0.028 0 0.060 0 0.093 0 8.837-7.163 16-16 16-4.441 0-8.46-1.81-11.359-4.732l-0.001-0.001zM228.64 859.36c-2.87-2.924-4.641-6.935-4.641-11.36s1.771-8.436 4.643-11.363l-0.002 0.003c2.907-2.907 6.924-4.705 11.36-4.705 8.873 0 16.065 7.193 16.065 16.065 0 4.436-1.798 8.453-4.705 11.36v0c-2.976 2.752-6.971 4.44-11.36 4.44s-8.384-1.688-11.371-4.45l0.011 0.010zM928 736h-832v-224h832zM896 544h-768v160h768zM384 480h-288v-448h288zM352 64h-224v384h224zM416 272h512v208h-512zM448 448h448v-144h-448zM416 32h512v208h-512zM448 208h448v-144h-448z" />
<glyph unicode="&#xe92f;" glyph-name="levels-controls" d="M181.624 821.226v-353.798c0-9.768 7.909-17.696 17.696-17.696 9.785 0 17.696 7.928 17.696 17.696v353.798c0 9.768-7.909 17.696-17.696 17.696s-17.696-7.928-17.696-17.696zM217.014 74.774v116.186c0 9.768-7.909 17.696-17.696 17.696s-17.696-7.928-17.696-17.696v-116.186c0-9.768 7.909-17.696 17.696-17.696 9.785 0 17.696 7.911 17.696 17.696zM531.333 715.161v106.065c0 9.768-7.909 17.696-17.696 17.696s-17.696-7.928-17.696-17.696v-106.065c0-9.768 7.909-17.696 17.696-17.696 9.768 0 17.696 7.928 17.696 17.696zM531.333 74.774v357.265c0 9.768-7.909 17.696-17.696 17.696s-17.696-7.928-17.696-17.696v-357.265c0-9.768 7.909-17.696 17.696-17.696 9.768 0 17.696 7.911 17.696 17.696zM824.7 838.92c-9.785 0-17.696-7.928-17.696-17.696v-289.653c0-9.768 7.909-17.696 17.696-17.696s17.696 7.928 17.696 17.696v289.655c0 9.768-7.928 17.694-17.696 17.694zM842.396 74.774v175.89c0 9.768-7.909 17.696-17.696 17.696s-17.696-7.928-17.696-17.696v-175.89c0-9.768 7.909-17.696 17.696-17.696 9.768 0 17.696 7.911 17.696 17.696zM306.428 225.642c50.837 0 92.192 41.353 92.192 92.192 0 50.837-41.353 92.192-92.192 92.192h-214.219c-50.837 0-92.209-41.355-92.209-92.192s41.372-92.192 92.209-92.192h214.219zM35.39 317.834c0 31.321 25.481 56.802 56.819 56.802h214.199c31.321 0 56.802-25.481 56.802-56.802s-25.481-56.802-56.802-56.802h-214.199c-31.321 0-56.819 25.481-56.819 56.802zM712.937 569.299c0 50.837-41.372 92.209-92.209 92.209h-214.199c-50.837 0-92.192-41.353-92.192-92.209 0-50.837 41.353-92.192 92.192-92.192h214.199c50.84 0 92.209 41.355 92.209 92.192zM620.728 512.497h-214.199c-31.302 0-56.802 25.481-56.802 56.802s25.481 56.819 56.802 56.819h214.199c31.339 0 56.819-25.498 56.819-56.819 0-31.319-25.481-56.802-56.819-56.802zM931.793 484.557h-214.199c-50.837 0-92.192-41.353-92.192-92.209 0-50.837 41.353-92.192 92.192-92.192h214.199c50.837 0 92.209 41.353 92.209 92.192-0.002 50.84-41.355 92.209-92.209 92.209zM931.793 335.53h-214.199c-31.321 0-56.802 25.481-56.802 56.802 0 31.339 25.481 56.819 56.802 56.819h214.199c31.339 0 56.819-25.481 56.819-56.819-0.002-31.304-25.483-56.802-56.819-56.802z" />
<glyph unicode="&#xe930;" glyph-name="html-widgets" d="M908.227 567.060l-0.479 1.867c-0.413 3.188-1.156 6.277-2.23 9.448l-1.057 3.171-0.76 1.635c-1.701 3.667-3.667 6.904-5.913 9.861l-0.545 1.123-351.349 351.233c-4.080 4.096-8.854 7.367-14.849 10.125l-4.179 1.553c-3.089 1.057-6.244 1.8-9.597 2.263l-2.428 0.661h-234.040c-91.095 0-165.194-74.082-165.194-165.177v-693.645c0-91.079 74.099-165.177 165.194-165.177h462.43c91.079 0 165.161 74.065 165.161 165.177v461.191l-0.165 4.691zM214.747 794.839c0 36.422 29.633 66.054 66.054 66.054h180.39v-182.884c0-91.079 74.099-165.194 165.177-165.194h182.884v-411.605c0-36.389-29.616-66.021-66.021-66.021h-462.43c-36.422 0-66.054 29.633-66.054 66.021v693.629zM419.236 169.693c-9.878 0-19.755 3.783-27.287 11.315l-99.734 99.734c-15.081 15.064-15.081 39.527 0 54.591l106.292 106.308c15.081 15.081 39.51 15.081 54.591 0 15.081-15.097 15.081-39.527 0-54.591l-78.988-79.004 72.43-72.43c15.081-15.064 15.081-39.51 0-54.591-7.532-7.549-17.41-11.331-27.304-11.331zM598.19 169.693c-9.878 0-19.755 3.783-27.271 11.315-15.097 15.081-15.097 39.51 0 54.608l78.971 78.971-72.43 72.43c-15.081 15.081-15.081 39.527 0 54.591 15.081 15.097 39.527 15.097 54.591 0l99.751-99.718c15.064-15.097 15.064-39.527 0-54.591l-106.308-106.308c-7.549-7.516-17.426-11.298-27.304-11.298z" />
<glyph unicode="&#xe931;" glyph-name="list" d="M362.146 448c0-75.865-61.5-137.365-137.365-137.365s-137.365 61.5-137.365 137.365c0 75.865 61.5 137.365 137.365 137.365s137.365-61.5 137.365-137.365zM911.611 547.903h-487.024c-13.794 0-24.976-11.182-24.976-24.976s11.182-24.976 24.976-24.976h487.024c13.794 0 24.976 11.182 24.976 24.976s-11.182 24.976-24.976 24.976zM424.586 348.097h262.243c13.794 0 24.976 11.182 24.976 24.976s-11.182 24.976-24.976 24.976h-262.243c-13.794 0-24.976-11.182-24.976-24.976s11.182-24.976 24.976-24.976zM362.146 822.635c0-75.865-61.5-137.365-137.365-137.365s-137.365 61.5-137.365 137.365c0 75.865 61.5 137.365 137.365 137.365s137.365-61.5 137.365-137.365zM424.586 872.586h487.024c13.794 0 24.976 11.182 24.976 24.976s-11.182 24.976-24.976 24.976h-487.024c-13.794 0-24.976-11.182-24.976-24.976s11.182-24.976 24.976-24.976zM424.586 722.732h262.243c13.794 0 24.976 11.182 24.976 24.976s-11.182 24.976-24.976 24.976h-262.243c-13.794 0-24.976-11.182-24.976-24.976s11.182-24.976 24.976-24.976zM362.146 73.365c0-75.865-61.5-137.365-137.365-137.365s-137.365 61.5-137.365 137.365c0 75.865 61.5 137.365 137.365 137.365s137.365-61.5 137.365-137.365zM911.611 173.268h-487.024c-13.794 0-24.976-11.182-24.976-24.976s11.182-24.976 24.976-24.976h487.024c13.794 0 24.976 11.182 24.976 24.976s-11.182 24.976-24.976 24.976zM686.83 23.414h-262.243c-13.794 0-24.976-11.182-24.976-24.976s11.182-24.976 24.976-24.976h262.243c13.794 0 24.976 11.182 24.976 24.976s-11.182 24.976-24.976 24.976z" />
<glyph unicode="&#xe932;" glyph-name="listing" d="M435.888 345.966c-14.356 8.28-32.7 3.346-40.974-11.006l-63.448-110.056-27.154 27.154c-11.716 11.716-30.712 11.716-42.426 0-11.716-11.716-11.716-30.71 0-42.426l54.818-54.818c6.612-6.614 15.908-9.748 25.138-8.53 9.248 1.22 17.404 6.674 22.064 14.758l82.986 143.95c8.276 14.354 3.348 32.698-11.004 40.974zM852 838h-120v52.64c0 11.776-6.89 22.464-17.616 27.326-63.542 28.794-134.27 42.034-202.384 42.034-71.72 0-141.704-14.536-202.384-42.036-10.726-4.86-17.616-15.548-17.616-27.324v-52.64h-120c-16.568 0-30-13.432-30-30v-842c0-16.568 13.432-30 30-30h680c16.568 0 30 13.432 30 30v842c0 16.568-13.432 30-30 30zM579.936 894.988c-7.302-29.406-34.072-52.988-67.936-52.988-33.8 0-60.604 23.488-67.934 52.988 44.77 6.638 91.102 6.636 135.87 0zM352 870.758c10.916 4.29 22.116 8.080 33.516 11.424 14.008-59.222 66.664-100.182 126.484-100.182 58.97 0 112.306 40.188 126.492 100.18 11.396-3.346 22.594-7.134 33.508-11.422 0-23.72 0-91.036 0-114.758h-320c0 23.742 0 91.118 0 114.758zM822-4h-620v782h90v-52c0-16.568 13.432-30 30-30h380c16.568 0 30 13.432 30 30v52h90v-782zM435.888 605.966c-14.356 8.276-32.7 3.348-40.974-11.006l-63.448-110.056-27.154 27.154c-11.716 11.716-30.712 11.716-42.426 0-11.716-11.716-11.716-30.71 0-42.426l54.818-54.818c6.612-6.614 15.908-9.748 25.138-8.53 9.248 1.22 17.404 6.674 22.064 14.758l82.986 143.95c8.276 14.354 3.348 32.698-11.004 40.974zM732 258h-200c-16.568 0-30-13.432-30-30s13.432-30 30-30h200c16.568 0 30 13.432 30 30s-13.432 30-30 30zM532 518c-16.568 0-30-13.432-30-30s13.432-30 30-30h200c16.568 0 30 13.432 30 30s-13.432 30-30 30h-200z" />
<glyph unicode="&#xe933;" glyph-name="logout" d="M1011.3 472.519l-109.564 77.244c-19.832 13.98-47.288-0.232-47.288-24.52v-154.484c0-24.388 27.514-38.454 47.286-24.52l109.564 77.242c16.958 11.956 16.912 37.112 0.002 49.038zM860.918 255.371c-14.338 8.292-32.692 3.396-40.99-10.948-70.472-121.83-202.2-203.614-352.733-203.614-224.528-0.002-407.195 182.666-407.195 407.189s182.668 407.193 407.193 407.193c150.634 0 282.305-81.864 352.731-203.612 8.296-14.344 26.654-19.238 40.99-10.948 14.342 8.296 19.242 26.648 10.948 40.99-81.048 140.112-232.422 233.57-404.669 233.57-258.219 0-467.193-208.952-467.193-467.193 0-258.219 208.952-467.191 467.193-467.191 172.322 0 323.657 93.524 404.673 233.574 8.294 14.342 3.394 32.692-10.948 40.99zM328.383 477.999c-16.568 0-30-13.43-30-30 0-16.568 13.432-30 30-30h466.061v60h-466.061z" />
<glyph unicode="&#xe934;" glyph-name="mail" d="M733.32 472.746h-460.112c-8.284 0-15-6.716-15-15s6.716-15 15-15h460.112c8.284 0 15 6.716 15 15s-6.716 15-15 15zM989.586 570.194h-77.010c-8.284 0-15-6.716-15-15s6.716-15 15-15h77.010c2.434 0 4.414-2.014 4.414-4.49v-24.262c-1.446 0.186-2.918 0.282-4.414 0.282h-36.202c-7.452 0-14.828-2.482-20.768-6.988l-67.812-51.436v413.74c0 8.284-6.716 15-15 15h-62.656v43.546c0 18.976-15.438 34.414-34.414 34.414h-135.898c-18.976 0-34.414-15.438-34.414-34.414v-166.086c0-56.442 45.92-102.362 102.364-102.362s102.364 45.92 102.364 102.362v92.54h47.656v-421.494l-322.108-244.326c-1.554-1.178-3.724-1.18-5.276 0l-322.11 244.326v421.494h358.396c8.284 0 15 6.716 15 15s-6.716 15-15 15h-373.396c-8.284 0-15-6.716-15-15v-413.74l-67.812 51.436c-5.94 4.508-13.316 6.99-20.768 6.99h-32.318c-1.496 0-2.968-0.096-4.414-0.282v24.262c0 2.476 1.98 4.49 4.414 4.49h66.654c8.284 0 15 6.716 15 15s-6.716 15-15 15h-66.654c-18.976 0-34.414-15.472-34.414-34.49v-565.216c0-19.018 15.438-34.49 34.414-34.49h955.172c18.976 0 34.414 15.472 34.414 34.49v565.216c0 19.018-15.438 34.49-34.414 34.488zM757.15 759.5c0-39.9-32.462-72.362-72.364-72.362s-72.364 32.462-72.364 72.362v166.086c0 2.434 1.98 4.414 4.414 4.414h23.828v-170.156c0-24.392 19.792-44.236 44.122-44.236s44.122 19.844 44.122 44.236v126.686c0 8.284-6.716 15-15 15s-15-6.716-15-15v-126.688c0-7.85-6.334-14.236-14.122-14.236s-14.122 6.386-14.122 14.236v170.158h82.070c2.434 0 4.414-1.98 4.414-4.414h0.002v-166.086zM994-29.512c0-2.476-1.98-4.49-4.414-4.49h-955.172c-2.434 0-4.414 2.014-4.414 4.49v506.746c0 2.476 1.98 4.49 4.414 4.49h32.318c0.944 0 1.882-0.316 2.638-0.89l355.204-269.424-242.5-143.856c-7.126-4.226-9.474-13.428-5.248-20.554s13.428-9.476 20.554-5.248l252.384 149.716c0.204 0.122 0.404 0.248 0.6 0.376l38.928-29.528c12.23-9.274 29.31-9.274 41.538 0l38.926 29.528c0.196-0.128 0.396-0.254 0.6-0.374l252.382-149.72c7.128-4.228 16.328-1.876 20.554 5.248 4.226 7.126 1.878 16.328-5.248 20.554l-242.498 143.856 355.2 269.428c0.758 0.574 1.694 0.89 2.638 0.89h36.202c2.434 0 4.414-2.014 4.414-4.49v-506.748zM733.32 521.47h-460.112c-8.284 0-15-6.716-15-15s6.716-15 15-15h460.112c8.284 0 15 6.716 15 15s-6.716 15-15 15zM534.766 759.844c0 8.284-6.716 15-15 15h-149.488c-8.284 0-15-6.716-15-15s6.716-15 15-15h149.488c8.284 0 15 6.716 15 15zM332.86 735.48c0 27.618-22.406 50.084-49.946 50.084s-49.946-22.468-49.946-50.084c0-27.616 22.406-50.082 49.946-50.082s49.946 22.468 49.946 50.082zM262.968 735.48c0 11.076 8.948 20.084 19.946 20.084s19.946-9.010 19.946-20.084-8.948-20.082-19.946-20.082c-10.998 0-19.946 9.010-19.946 20.082zM370.278 726.118c-8.284 0-15-6.716-15-15s6.716-15 15-15h97.070c8.284 0 15 6.716 15 15s-6.716 15-15 15h-97.070zM733.32 570.196h-460.112c-8.284 0-15-6.716-15-15s6.716-15 15-15h460.112c8.284 0 15 6.716 15 15s-6.716 15-15 15z" />
<glyph unicode="&#xe935;" glyph-name="manual" d="M201 96h622c66.168 0 120 53.832 120 120v624c0 66.168-53.832 120-120 120h-622c-66.168 0-120-53.832-120-120v-784c0-66.168 53.832-120 120-120h622c66.168 0 120 53.832 120 120v0.1c-33.45-25.166-75.012-40.1-120-40.1h-622c-22.056 0-40 17.944-40 40s17.944 40 40 40zM161 840c0 22.056 17.944 40 40 40h622c22.056 0 40-17.944 40-40v-624c0-22.056-17.944-40-40-40h-622c-14.018 0-27.484-2.416-40-6.854v670.854zM445 622.84h-80c0 41.036 17.588 80.314 48.256 107.768 31.070 27.816 72.866 41.112 114.68 36.468 66.986-7.434 120.926-61.234 128.258-127.928 6.686-60.828-28.986-104.476-56.4-132.016-7.056-7.088-13.568-13.298-19.314-18.78-26.138-24.928-29.468-29.12-29.468-46.344v-2.008h-80v2.010c0 52.494 25.144 76.472 54.258 104.238 5.656 5.394 11.506 10.972 17.826 17.322 25.834 25.954 35.876 45.942 33.58 66.838-3.276 29.78-27.482 53.818-57.562 57.156-19.492 2.156-38.148-3.716-52.498-16.564-13.94-12.476-21.616-29.58-21.616-48.16zM471 380h80v-80h-80v80z" />
<glyph unicode="&#xe936;" glyph-name="megaphone" d="M624 668c0-11.047-8.953-20-20-20s-20 8.953-20 20 8.953 20 20 20 20-8.953 20-20zM92 348.352v-280.352c0-44.109 35.891-80 80-80s80 35.891 80 80v160h20c33.086 0 60 26.914 60 60v60.789c120.383-4.273 240.023-44.133 332-110.922v-29.867c0-33.086 26.914-60 60-60s60 26.914 60 60v222.016c45.594 9.289 80 49.688 80 97.984s-34.406 88.695-80 97.984v222.016c0 33.148-26.852 60-60 60-33.086 0-60-26.914-60-60v-29.875c-105.648-77.281-249.359-118.398-386-110.461-1.563 0.094-178 0.336-178 0.336-55.141 0-100-44.859-100-100v-160c0-52.445 40.594-95.555 92-99.648zM212 68c0-22.055-17.945-40-40-40s-40 17.945-40 40v280h80zM272 268h-20v80h20c1.484 0 8.328 0.555 20 0.922v-60.922c0-11.031-8.969-20-20-20zM824 528c0-26.070-16.719-48.305-40-56.563v113.125c23.281-8.258 40-30.492 40-56.563zM704 848c0 11.031 8.969 20 20 20 11.039 0 20-8.953 20-20v-640c0-11.031-8.969-20-20-20s-20 8.969-20 20zM664 769.516v-483.109c-100.383 65.32-226.648 102.484-351.938 102.797-6.664 0.016-13.375-0.070-20.063-0.266v278.070c130.773-4.102 266.242 33.375 372 102.508zM40 608c0 33.086 26.914 60 60 60h152v-280c-36.961 0-126.82 0-152 0-33.086 0-60 26.914-60 60zM351.984 587.922c0.406 0 0.813 0.008 1.219 0.031 63.781 3.852 131.961 15.766 182.367 31.875 10.523 3.367 16.32 14.617 12.961 25.141s-14.617 16.32-25.141 12.961c-47.422-15.156-111.938-26.383-172.594-30.047-11.023-0.664-19.422-10.141-18.758-21.164 0.641-10.617 9.445-18.797 19.945-18.797zM1004 548h-80c-11.047 0-20-8.953-20-20s8.953-20 20-20h80c11.047 0 20 8.953 20 20s-8.953 20-20 20zM929.258 648.414l56.586 56.563c7.805 7.813 7.813 20.469 0 28.281-7.805 7.813-20.469 7.82-28.281 0.008l-56.586-56.563c-7.805-7.813-7.813-20.469 0-28.281 7.805-7.813 20.469-7.82 28.281-0.008zM957.563 322.734c7.805-7.805 20.469-7.805 28.281 0.008s7.805 20.469 0 28.281l-56.586 56.563c-7.805 7.805-20.469 7.805-28.281-0.008s-7.805-20.469 0-28.281z" />
<glyph unicode="&#xe937;" glyph-name="message" d="M1023.218 564.798c-0.002 1.54-0.346 3.866-0.944 5.206-1.574 5.708-5.072 10.922-10.308 14.562l-146.584 101.896v109.232c0 14.48-11.744 26.224-26.224 26.224h-168.638l-143.486 99.756c-8.968 6.242-20.874 6.268-29.87 0.052l-144.412-99.808h-167.9c-14.484 0-26.224-11.744-26.224-26.224v-107.946l-147.296-101.802c-7.246-5.008-11.166-13.014-11.29-21.2-0.008-0.154-0.042-0.3-0.042-0.46l0.782-568.47c0.010-6.954 2.782-13.62 7.704-18.532 4.916-4.902 11.576-7.654 18.52-7.654 0.014 0 0.024 0 0.036 0l970.77 1.334c14.48 0.020 26.208 11.778 26.188 26.26l-0.782 567.574zM865.38 622.584l83.796-58.236-83.796-58.256v116.492zM512.030 868.232l66.62-46.312h-133.624l67.004 46.312zM211.076 769.47h601.856v-299.842l-202.072-140.484-82.388 63.908c-0.128 0.1-0.238 0.162-0.362 0.252-9.208 6.908-22.232 7.162-31.788-0.252l-82.986-64.37-202.26 139.786v301.002zM158.628 623.994v-119.28l-86.292 59.638 86.292 59.642zM52.516 514.266l317.338-219.31-316.698-245.648-0.64 464.958zM103.75 22.182l408.648 316.968 407.182-315.846-815.83-1.122zM654.288 295.458l316.552 220.072 0.64-466.118-317.192 246.046zM689.54 664.574h-355.072c-14.48 0-26.224-11.744-26.224-26.224s11.744-26.224 26.224-26.224h355.072c14.484 0 26.224 11.744 26.224 26.224s-11.74 26.224-26.224 26.224zM689.54 528.21h-355.072c-14.48 0-26.224-11.744-26.224-26.224s11.744-26.224 26.224-26.224h355.072c14.484 0 26.224 11.744 26.224 26.224s-11.74 26.224-26.224 26.224z" />
<glyph unicode="&#xe938;" glyph-name="next_play" d="M800 896c-17.673 0-32-14.327-32-32v0-352l-525.12 377.92c-5.22 3.851-11.78 6.163-18.88 6.163-17.673 0-32-14.327-32-32 0-0.029 0-0.059 0-0.088v0.005-832c0-0.025 0-0.054 0-0.083 0-17.673 14.327-32 32-32 7.1 0 13.66 2.312 18.968 6.225l-0.088-0.062 525.12 377.92v-352c0-17.673 14.327-32 32-32s32 14.327 32 32v0 832c0 17.673-14.327 32-32 32v0z" />
<glyph unicode="&#xe939;" glyph-name="pause02" d="M512 960c-282.313 0-512-229.687-512-512s229.687-512 512-512 512 229.687 512 512-229.687 512-512 512zM448 256h-128v384h128zM704 256h-128v384h128z" />
<glyph unicode="&#xe93a;" glyph-name="pause-button" d="M512.002-64c282.767 0 512.002 229.231 512.002 512.002s-229.235 511.998-512.002 511.998-512.002-229.231-512.002-512.002 229.231-511.998 512.002-511.998zM512.002 878.081c237.138 0 430.079-192.941 430.079-430.079s-192.941-430.079-430.079-430.079-430.079 192.941-430.079 430.079 192.918 430.079 430.079 430.079zM416.851 206.499c28.282 0 51.201 22.916 51.201 51.201v389.119c0 28.282-22.916 51.201-51.201 51.201-28.282 0-51.201-22.916-51.201-51.201v-389.119c0-28.285 22.916-51.201 51.201-51.201zM621.649 206.499c28.282 0 51.201 22.916 51.201 51.201v389.119c0 28.282-22.916 51.201-51.201 51.201s-51.198-22.92-51.198-51.201v-389.119c0-28.285 22.916-51.201 51.198-51.201z" />
<glyph unicode="&#xe93b;" glyph-name="geo-fence" d="M285.504 85.74c60.9-17.204 141.338-26.68 226.496-26.68s165.596 9.474 226.496 26.68c74.506 21.046 112.284 51.514 112.284 90.55 0 39.038-37.778 69.502-112.284 90.548-34.046 9.618-74.216 16.806-117.888 21.288 85.522 145.972 170.272 311.254 170.272 392.996 0 153.774-125.104 278.878-278.88 278.878s-278.88-125.104-278.88-278.878c0-81.74 84.748-247.018 170.27-392.99-43.672-4.482-83.836-11.674-117.884-21.294-74.506-21.046-112.284-51.512-112.284-90.548-0.002-39.036 37.776-69.502 112.282-90.55zM512 900c120.692 0 218.88-98.188 218.88-218.878 0-61.992-76.704-224.496-205.18-434.7-4.244-6.944-10.996-7.692-13.702-7.692-2.704 0-9.458 0.748-13.702 7.692-128.476 210.204-205.18 372.706-205.18 434.7 0.004 120.69 98.192 218.878 218.884 218.878zM312.71 212.024c35.77 9.11 78.628 15.504 124.826 18.83 3.206-5.288 6.396-10.532 9.566-15.718 13.932-22.796 38.192-36.402 64.896-36.402 26.706 0 50.964 13.608 64.896 36.402 3.17 5.188 6.362 10.432 9.568 15.72 46.198-3.326 89.054-9.722 124.826-18.832 54.832-13.966 74.864-29.688 78.982-35.732-4.12-6.046-24.148-21.768-78.98-35.732-54.426-13.864-125.204-21.498-199.292-21.498s-144.866 7.634-199.29 21.498c-54.832 13.964-74.862 29.688-78.98 35.732 4.12 6.044 24.15 21.764 78.982 35.732zM936.658 242.056c-14.526 7.978-32.764 2.672-40.738-11.848-7.978-14.522-2.674-32.762 11.848-40.738 35.736-19.632 56.232-41.396 56.232-59.712 0-22.402-31.74-57.122-120.826-87.388-88.010-29.904-205.624-46.37-331.174-46.37s-243.164 16.466-331.174 46.37c-89.086 30.264-120.826 64.986-120.826 87.388 0 18.316 20.496 40.080 56.232 59.714 14.522 7.976 19.826 26.216 11.848 40.738-7.978 14.52-26.212 19.826-40.738 11.848-39.844-21.89-87.342-59.142-87.342-112.3 0-40.748 28.024-98.844 161.524-144.2 94.064-31.958 218.532-49.558 350.476-49.558s256.412 17.6 350.476 49.558c133.5 45.356 161.524 103.452 161.524 144.2 0 53.158-47.498 90.41-87.342 112.298zM624.094 700.27c0 61.806-50.286 112.090-112.094 112.090s-112.094-50.284-112.094-112.090c0-61.808 50.286-112.092 112.094-112.092s112.094 50.282 112.094 112.092zM459.906 700.27c0 28.722 23.37 52.090 52.094 52.090s52.094-23.368 52.094-52.090c0-28.722-23.37-52.092-52.094-52.092s-52.094 23.368-52.094 52.092z" />
<glyph unicode="&#xe93c;" glyph-name="play" d="M256.834 960v-1024l510.332 512z" />
<glyph unicode="&#xe93d;" glyph-name="play_circle" d="M680.895 468.019l-212.631 154.566c-7.803 5.657-18.162 6.508-26.715 2.113-8.621-4.362-14.005-13.221-14.005-22.796v-309.030c0-9.677 5.384-18.503 14.005-22.865 3.646-1.84 7.633-2.76 11.654-2.76 5.248 0 10.563 1.67 15.061 4.975l212.631 154.43c6.713 4.941 10.632 12.574 10.632 20.684 0.034 8.246-3.987 15.845-10.632 20.684zM512.017 959.932c-282.826 0-512.017-229.191-512.017-512.017 0-282.724 229.191-511.847 512.017-511.847 282.758 0 511.983 229.157 511.983 511.847 0.034 282.826-229.225 512.017-511.983 512.017zM512.017 21.495c-235.529 0-426.488 190.856-426.488 426.42 0 235.461 190.959 426.556 426.488 426.556 235.495 0 426.42-191.061 426.42-426.556 0.034-235.563-190.924-426.42-426.42-426.42z" />
<glyph unicode="&#xe93e;" glyph-name="play_rounded" d="M862.201 507.37l-594.539 343.261c-18.174 10.49-40.533 10.49-58.729 0-18.145-10.483-29.335-29.88-29.335-50.854v-686.507c0-20.981 11.212-40.363 29.335-50.832 9.105-5.253 19.228-7.86 29.364-7.86 10.122 0 20.266 2.608 29.342 7.86l594.539 343.254c18.167 10.476 29.35 29.865 29.35 50.832 0.037 20.966-11.168 40.349-29.328 50.846z" />
<glyph unicode="&#xe93f;" glyph-name="print_mail" d="M984 960h-944c-21.805 0-40-17.766-40-40v-544c0-20.82 16.078-39.344 40.039-40h111.961v-360c0-22.094 17.906-40 40-40h640c22.094 0 40 17.906 40 40v360h112c22.094 0 40 17.906 40 40v544c0 22.188-18.125 40-40 40zM874.93 880l-362.93-307.57-362.93 307.57zM80 833.672l219.094-185.672-219.094-185.672zM792 16h-560v320h560zM149.070 416l211.891 179.57 125.18-106.086c14.914-12.641 36.797-12.648 51.719 0l125.18 106.086 211.891-179.57c-24.031 0-693.852 0-725.859 0zM944 462.328l-219.094 185.672 219.094 185.672zM315.391 176c0 22.094 17.906 40 40 40h313.219c22.094 0 40-17.906 40-40s-17.906-40-40-40h-313.219c-22.094 0-40 17.906-40 40z" />
<glyph unicode="&#xe940;" glyph-name="print_mail_rounded" d="M951.673 525.163c-9.781 6.203-21.375 9.797-33.797 9.797h-48.242c-0.102 0-0.203 0-0.305-0.008h-31.906v223.5c0 0.109 0 0.219 0 0.32-0.117 17.047-9.32 32.906-24.078 41.461l-260.493 150.969c-24.836 14.398-55.688 14.398-80.524 0l-260.493-150.961c-14.758-8.555-23.953-24.422-24.070-41.461-0.008-0.109-0.008-0.219-0.008-0.328v-223.493h-80.461c-34.899 0-63.297-28.398-63.297-63.305v-200.907c0-34.906 28.398-63.297 63.297-63.297h98.524l-21.992-180.985c-2.719-22.422 4.313-44.977 19.289-61.875 14.969-16.898 36.508-26.594 59.086-26.594h500.774c22.578 0 44.117 9.695 59.086 26.594 14.977 16.906 22.008 39.461 19.289 61.883l-21.984 180.977h98.516c34.906 0 63.305 28.391 63.305 63.297v200.907c0 22.492-11.789 42.274-29.516 53.508zM889.634 494.96h28.25c4.617 0 8.922-1.352 12.547-3.68 6.461-4.141 10.75-11.391 10.75-19.617v-38.336h-20.398c-17.172 0-31.148 13.977-31.148 31.148zM767.368 534.96l-122.539 136.774 152.594 57.758v-194.539h-30.055zM492.391 916.594c12.461 7.227 27.945 7.227 40.406 0l255.196-147.899-258.376-97.805c-10.977-4.148-23.070-4.156-34.055 0l-258.376 97.805zM227.765 729.492l152.594-57.758-122.539-136.782h-30.055zM792.126-8.885c-7.492-8.453-17.844-13.117-29.148-13.117h-500.774c-11.305 0-21.656 4.656-29.148 13.117-7.5 8.461-10.883 19.313-9.523 30.531l24.641 202.75c0.063 0.391 0.109 0.789 0.141 1.188l15.266 125.617h498.024l15.258-125.625c0.039-0.398 0.086-0.789 0.148-1.18l24.633-202.743c1.367-11.227-2.016-22.078-9.516-30.539zM917.884 247.452h-103.375l-12.609 103.75h36.789c11.047 0 20 8.953 20 20s-8.953 20-20 20h-58.828c-0.18 0.008-0.359 0.008-0.539 0.008h-533.462c-0.18 0-0.359 0-0.539-0.008h-53.664c-11.047 0-20-8.953-20-20s8.953-20 20-20h31.625l-12.602-103.75h-103.383c-12.844 0-23.297 10.453-23.297 23.297v200.907c0 12.852 10.453 23.305 23.297 23.305h275.29c11.047 0 20 8.953 20 20s-8.953 20-20 20h-71.063l108.938 121.594 60.945-23.070c20.109-7.617 42.266-7.609 62.375 0l60.938 23.070 108.946-121.594h-171.071c-11.047 0-20-8.953-20-20s8.953-20 20-20h307.047v-30.477c0-39.234 31.914-71.149 71.149-71.149h20.398v-122.586c-0.008-12.844-10.453-23.297-23.305-23.297zM374.187 245.006h286.211c11.047 0 20 8.953 20 20s-8.953 20-20 20h-286.211c-11.047 0-20-8.953-20-20s8.953-20 20-20zM339.398 136.936h346.383c11.047 0 20 8.953 20 20s-8.953 20-20 20h-346.383c-11.047 0-20-8.953-20-20s8.953-20 20-20zM732.985 68.873h-440.782c-11.047 0-20-8.953-20-20s8.953-20 20-20h440.782c11.047 0 20 8.953 20 20s-8.953 20-20 20zM481.055 522.616c-0.5 1.203-1.125 2.359-1.844 3.438-0.719 1.102-1.563 2.125-2.477 3.047-4.641 4.641-11.547 6.773-18.047 5.477-1.273-0.258-2.539-0.641-3.734-1.141-1.227-0.5-2.383-1.117-3.461-1.836-1.102-0.742-2.125-1.586-3.039-2.5-0.922-0.922-1.766-1.945-2.484-3.047-0.719-1.078-1.336-2.234-1.836-3.438-0.5-1.219-0.906-2.477-1.141-3.742-0.266-1.297-0.398-2.617-0.398-3.914 0-1.305 0.133-2.625 0.398-3.906 0.234-1.273 0.641-2.539 1.141-3.734 0.5-1.227 1.117-2.383 1.836-3.461 0.719-1.102 1.563-2.125 2.484-3.039 0.914-0.922 1.938-1.766 3.039-2.484 1.078-0.719 2.234-1.336 3.461-1.836 1.195-0.5 2.461-0.883 3.734-1.141 1.281-0.266 2.602-0.398 3.906-0.398 5.258 0 10.414 2.133 14.141 5.859 0.914 0.914 1.758 1.938 2.477 3.039 0.719 1.078 1.344 2.234 1.844 3.461 0.5 1.195 0.898 2.461 1.133 3.734 0.266 1.281 0.406 2.602 0.406 3.906 0 1.297-0.141 2.617-0.406 3.914-0.242 1.258-0.633 2.523-1.133 3.742z" />
<glyph unicode="&#xe941;" glyph-name="progress-report" d="M260.942 186.248c-8.944-8.944-16.173-26.42-16.173-39.047v-164.474h95.483v259.957c0 12.627-7.23 15.647-16.173 6.703l-63.137-63.14zM680.34 342.076c-8.921-8.944-16.173-26.423-16.173-39.072v-320.302h95.483v415.9c0 12.627-7.23 15.624-16.173 6.681l-63.137-63.207zM820.111 482.052c-8.944-8.921-16.196-26.397-16.196-39.025v-460.3h88.78v548.917c0 12.627-7.252 15.647-16.196 6.703l-56.388-56.295zM543.362 205.12c0 0-4.255-4.278-9.515-9.54-5.237-5.263-9.492-19.787-9.492-32.414v-180.441h95.483v275.925c0 12.627-7.252 15.647-16.196 6.703l-60.28-60.232zM400.757 253.64c-8.944 8.921-16.196 5.924-16.196-6.703v-264.212h95.483v168.937c0 12.627-6.864 29.715-15.349 38.155l-15.349 15.281-48.59 48.542zM140.775 66.014l-30.835-30.883c-8.921-8.944-16.151-24.295-16.151-34.314v-18.118h106.577v120.122c0 12.627-7.23 15.624-16.173 6.681l-43.418-43.488zM1007.827 535.831c8.921-8.944 16.173-5.924 16.173 6.703v326.867c0 23.403-22.418 43.899-45.683 43.899h-324.971c-12.627 0-15.647-7.252-6.703-16.196l115.591-115.681-47.146-46.941-218.667-218.872-115.658 115.633c-8.944 8.944-23.403 8.921-32.346 0l-321.627-321.858c-35.732-35.755-35.709-93.699 0.023-129.428l2.243-2.265c35.732-35.732 93.677-35.732 129.383 0.023l206.132 206.245 115.658-115.543c8.944-8.921 23.425-8.921 32.369 0l381.266 381.334 113.964-113.919z" />
<glyph unicode="&#xe942;" glyph-name="question" d="M562 203c0-27.614-22.386-50-50-50s-50 22.386-50 50c0 27.614 22.386 50 50 50s50-22.386 50-50zM512 960c-282.968 0-512-228.994-512-512 0-282.968 228.994-512 512-512 282.968 0 512 228.994 512 512 0 282.968-228.994 512-512 512zM512 16c-238.754 0-432 193.214-432 432 0 238.754 193.214 432 432 432 238.754 0 432-193.214 432-432 0-238.754-193.214-432-432-432zM512 703c-88.224 0-160-71.776-160-160 0-22.092 17.908-40 40-40s40 17.908 40 40c0 44.112 35.888 80 80 80s80-35.888 80-80c0-44.112-35.888-80-80-80-22.092 0-40-17.908-40-40v-100c0-22.092 17.908-40 40-40s40 17.908 40 40v65.062c68.932 17.806 120 80.52 120 154.938 0 88.224-71.776 160-160 160z" />
<glyph unicode="&#xe943;" glyph-name="questions" d="M201 96h622c66.168 0 120 53.832 120 120v624c0 66.168-53.832 120-120 120h-622c-66.168 0-120-53.832-120-120v-784c0-66.168 53.832-120 120-120h622c66.168 0 120 53.832 120 120v0.1c-33.45-25.166-75.012-40.1-120-40.1h-622c-22.056 0-40 17.944-40 40s17.944 40 40 40zM161 840c0 22.056 17.944 40 40 40h622c22.056 0 40-17.944 40-40v-624c0-22.056-17.944-40-40-40h-622c-14.018 0-27.484-2.416-40-6.854v670.854zM445 622.84h-80c0 41.036 17.588 80.314 48.256 107.768 31.070 27.816 72.866 41.112 114.68 36.468 66.986-7.434 120.926-61.234 128.258-127.928 6.686-60.828-28.986-104.476-56.4-132.016-7.056-7.088-13.568-13.298-19.314-18.78-26.138-24.928-29.468-29.12-29.468-46.344v-2.008h-80v2.010c0 52.494 25.144 76.472 54.258 104.238 5.656 5.394 11.506 10.972 17.826 17.322 25.834 25.954 35.876 45.942 33.58 66.838-3.276 29.78-27.482 53.818-57.562 57.156-19.492 2.156-38.148-3.716-52.498-16.564-13.94-12.476-21.616-29.58-21.616-48.16zM471 380h80v-80h-80v80z" />
<glyph unicode="&#xe944;" glyph-name="rating" d="M340.292 837.071c-2.219 6.833-7.74 12.094-14.677 13.99l-87.406 23.865-49.708 75.75c-7.875 12.021-27.792 12.021-35.667 0l-49.698-75.75-87.417-23.865c-6.938-1.896-12.458-7.156-14.677-13.99-2.219-6.844-0.844-14.333 3.646-19.938l56.698-70.688-4.323-90.5c-0.344-7.188 2.958-14.052 8.771-18.281 3.698-2.688 8.104-4.073 12.542-4.073 2.542 0 5.104 0.458 7.552 1.385l84.74 32.073 84.75-32.073c6.719-2.552 14.281-1.542 20.094 2.688s9.115 11.094 8.771 18.281l-4.323 90.5 56.688 70.688c4.49 5.604 5.865 13.104 3.646 19.938zM241.615 766.842c-3.25-4.052-4.906-9.167-4.667-14.365l3.156-66.094-61.885 23.427c-2.438 0.927-4.99 1.385-7.552 1.385s-5.115-0.458-7.552-1.385l-61.875-23.417 3.156 66.083c0.25 5.198-1.417 10.313-4.667 14.365l-41.406 51.615 63.833 17.427c5.021 1.375 9.365 4.531 12.219 8.885l36.292 55.313 36.302-55.313c2.854-4.354 7.198-7.51 12.219-8.885l63.823-17.427-41.396-51.615zM426.667 853.644h362.667v-42.667h-362.667v42.667zM426.667 746.977h597.333v-42.667h-597.333v42.667zM340.292 488.435c-2.229 6.833-7.74 12.094-14.677 13.99l-87.406 23.854-49.708 75.75c-7.875 12.021-27.792 12.021-35.667 0l-49.698-75.75-87.417-23.854c-6.938-1.896-12.448-7.156-14.677-13.99-2.219-6.833-0.844-14.333 3.646-19.938l56.698-70.688-4.323-90.5c-0.344-7.187 2.958-14.052 8.771-18.281 5.802-4.208 13.365-5.219 20.094-2.688l84.74 32.073 84.75-32.073c2.448-0.927 5.010-1.385 7.552-1.385 4.438 0 8.844 1.385 12.542 4.073 5.813 4.229 9.115 11.094 8.771 18.281l-4.323 90.5 56.688 70.688c4.49 5.604 5.865 13.104 3.646 19.938zM241.615 418.206c-3.25-4.052-4.906-9.167-4.667-14.365l3.156-66.094-61.885 23.427c-2.438 0.927-4.99 1.385-7.552 1.385s-5.115-0.458-7.552-1.385l-61.875-23.417 3.156 66.083c0.25 5.198-1.417 10.313-4.667 14.365l-41.406 51.615 63.833 17.417c5.021 1.375 9.365 4.531 12.219 8.885l36.292 55.313 36.302-55.313c2.854-4.354 7.198-7.51 12.219-8.885l63.823-17.417-41.396-51.615zM426.667 512.31h362.667v-42.667h-362.667v42.667zM426.667 405.644h597.333v-42.667h-597.333v42.667zM340.292 139.79c-2.229 6.833-7.74 12.094-14.677 13.99l-87.406 23.854-49.708 75.76c-7.875 12.021-27.792 12.021-35.667 0l-49.698-75.76-87.417-23.854c-6.938-1.896-12.448-7.156-14.677-13.99-2.219-6.833-0.844-14.333 3.646-19.938l56.698-70.688-4.323-90.5c-0.344-7.188 2.958-14.052 8.771-18.281 5.802-4.229 13.365-5.219 20.094-2.688l84.74 32.073 84.75-32.073c2.448-0.927 5.010-1.385 7.552-1.385 4.438 0 8.844 1.385 12.542 4.073 5.813 4.229 9.115 11.094 8.771 18.281l-4.323 90.5 56.688 70.688c4.49 5.604 5.865 13.104 3.646 19.938zM241.615 69.56c-3.25-4.052-4.906-9.167-4.667-14.365l3.156-66.094-61.885 23.427c-2.438 0.927-4.99 1.385-7.552 1.385s-5.115-0.458-7.552-1.385l-61.875-23.417 3.156 66.083c0.25 5.198-1.417 10.313-4.667 14.365l-41.406 51.615 63.833 17.417c5.021 1.375 9.365 4.531 12.219 8.885l36.292 55.323 36.302-55.323c2.854-4.354 7.198-7.51 12.219-8.885l63.823-17.417-41.396-51.615zM426.667 149.644h362.667v-42.667h-362.667v42.667zM426.667 42.977h597.333v-42.667h-597.333v42.667z" />
<glyph unicode="&#xe945;" glyph-name="resize" d="M554.019 590.011v-280.025c0-22.094-17.91-40.004-40.004-40.004s-40.004 17.91-40.004 40.004v280.025c0 22.094 17.91 40.004 40.004 40.004s40.004-17.91 40.004-40.004zM354.001 490.003h-242.565l86.98 87.868c15.543 15.703 15.415 41.032-0.288 56.573-15.701 15.541-41.030 15.415-56.573-0.288l-112.396-113.544c-38.891-39.001-38.855-102.371-0.034-141.194l118.436-119.585c7.823-7.897 18.122-11.853 28.422-11.853 10.173 0 20.35 3.856 28.148 11.581 15.697 15.545 15.819 40.876 0.272 56.573l-92.96 93.86h242.553c22.094 0 40.004 17.91 40.004 40.004 0.004 22.096-17.906 40.006-40 40.006zM994.663 520.821l-116.436 115.584c-15.679 15.565-41.010 15.471-56.573-0.208-15.565-15.679-15.471-41.008 0.208-56.573l90.28-89.62h-238.113c-22.094 0-40.004-17.91-40.004-40.004s17.91-40.004 40.004-40.004h238.553l-92.96-93.86c-15.547-15.699-15.425-41.028 0.272-56.573 7.799-7.725 17.976-11.581 28.148-11.581 10.301 0 20.602 3.956 28.422 11.853l118.302 119.45c38.993 38.989 38.993 102.437-0.104 141.534z" />
<glyph unicode="&#xe946;" glyph-name="right_and_left_arrows" d="M512-64c43.197 0 78.256 35.060 78.256 78.256v867.489c0 43.197-35.058 78.256-78.256 78.256s-78.256-35.058-78.256-78.256v-867.385c0-43.301 35.058-78.36 78.256-78.36zM689.484 195.913c15.235-15.235 35.268-22.955 55.301-22.955s40.067 7.617 55.301 22.955l197.934 197.933c14.713 14.713 22.955 34.538 22.955 55.301 0 20.764-8.242 40.693-22.955 55.301l-195.639 195.64c-30.572 30.572-80.134 30.572-110.706 0s-30.572-80.134 0-110.706l140.338-140.338-142.529-142.529c-30.572-30.573-30.572-80.135 0-110.601zM3.026 449.147c0-20.763 8.243-40.693 22.955-55.301l197.934-197.933c15.234-15.235 35.267-22.955 55.301-22.955s40.067 7.617 55.301 22.955c30.572 30.572 30.572 80.134 0 110.706l-142.634 142.529 140.338 140.338c30.572 30.572 30.572 80.134 0 110.706s-80.134 30.572-110.706 0l-195.639-195.744c-14.608-14.608-22.851-34.536-22.851-55.301z" />
<glyph unicode="&#xe947;" glyph-name="right-thin-chevron" d="M307.2 89.6c0 6.548 2.5 13.096 7.5 18.096l340.3 340.304-340.3 340.3c-10 10-10 26.2 0 36.2s26.2 10 36.2 0l358.404-358.4c10-10 10-26.204 0-36.204l-358.404-358.4c-10-10-26.2-10-36.2 0-5 5.004-7.5 11.556-7.5 18.104z" />
<glyph unicode="&#xe948;" glyph-name="ring" d="M1008.898 228.199c-120.44 120.474-138.564 180.924-138.564 373.401 0 197.94-160.426 358.399-358.331 358.399s-358.331-160.462-358.331-358.399c0-103.782-2.764-142.524-17.050-190.088-17.766-59.256-54.238-115.986-121.532-183.314-32.238-32.256-9.402-87.398 36.2-87.398h284.107l-2.578-25.6c0-98.97 80.214-179.2 179.166-179.2s179.166 80.23 179.166 179.2l-2.578 25.6h284.125c45.62 0 68.456 55.142 36.2 87.398zM512.019-12.798c-70.674 0-127.982 57.326-127.982 128l2.578 25.6h250.778l2.612-25.6c-0.002-70.674-57.312-128-127.986-128zM51.306 192.001c153.566 153.6 153.566 256 153.566 409.599 0 169.642 137.506 307.199 307.131 307.199s307.131-137.558 307.147-307.199c0-153.6 0-256 153.566-409.599h-921.41z" />
<glyph unicode="&#xe949;" glyph-name="save_icon" d="M834.121 960h-823.672v-1024h1003.102v844.57l-179.43 179.43zM741.878 918.204v-292.571h-501.551v292.571h501.551zM198.531-22.204v397.061h606.041v-397.061h-606.041zM971.755-22.204h-125.388v438.857h-689.633v-438.857h-104.49v940.408h146.286v-334.367h585.143v334.367h33.144l154.937-154.937v-785.471zM282.122 270.367h146.286c11.557 0 20.898 9.341 20.898 20.898s-9.341 20.898-20.898 20.898h-146.286c-11.557 0-20.898-9.341-20.898-20.898s9.341-20.898 20.898-20.898zM491.102 228.571h-208.98c-11.557 0-20.898-9.341-20.898-20.898s9.341-20.898 20.898-20.898h208.98c11.557 0 20.898 9.341 20.898 20.898s-9.341 20.898-20.898 20.898zM538.958 222.511c-3.783-3.95-6.060-9.404-6.060-14.838s2.278-10.867 6.060-14.838c3.95-3.762 9.174-6.060 14.838-6.060 5.433 0 10.867 2.299 14.838 6.060 3.762 3.971 6.060 9.404 6.060 14.838s-2.299 10.888-6.060 14.838c-7.732 7.732-21.943 7.732-29.675 0zM700.082 876.408h-125.388v-208.98h125.388v208.98zM658.286 709.224h-41.796v125.388h41.796v-125.388z" />
<glyph unicode="&#xe94a;" glyph-name="search" d="M451.547 958.768c-248.98 0-451.547-202.012-451.547-450.315s202.568-450.315 451.547-450.315 451.549 202.012 451.549 450.315-202.568 450.315-451.549 450.315zM451.547 132.164c-208.168 0-377.523 168.812-377.523 376.291 0 207.49 169.354 376.291 377.523 376.291s377.523-168.8 377.523-376.291c0.002-207.478-169.352-376.291-377.523-376.291zM1013.096 0.486l-243.046 241.812c-14.496 14.41-37.926 14.348-52.348-0.136-14.41-14.496-14.348-37.924 0.136-52.348l243.046-241.812c7.23-7.18 16.656-10.77 26.106-10.77 9.512 0 19.012 3.64 26.242 10.906 14.41 14.498 14.348 37.926-0.136 52.348z" />
</font>
</defs>
</svg>
